<?xml version="1.0" encoding="UTF-8" standalone="no"?><!DOCTYPE svg PUBLIC "-//W3C//DTD SVG 1.1//EN" "http://www.w3.org/Graphics/SVG/1.1/DTD/svg11.dtd"><svg width="100%" height="100%" viewBox="0 0 1156 1156" version="1.1" xmlns="http://www.w3.org/2000/svg" xmlns:xlink="http://www.w3.org/1999/xlink" xml:space="preserve" xmlns:serif="http://www.serif.com/" style="fill-rule:evenodd;clip-rule:evenodd;stroke-linejoin:round;stroke-miterlimit:2;"><path d="M335.417,0c-184.723,0 -335.417,150.694 -335.417,335.417l0,484.722c0,184.722 150.694,335.417 335.417,335.417l484.722,-0c184.722,-0 335.417,-150.695 335.417,-335.417l-0,-484.722c-0,-184.723 -150.695,-335.417 -335.417,-335.417l-484.722,0Zm-0,88.889l484.722,-0c136.632,-0 246.528,109.722 246.528,246.528l-0,484.722c-0,136.632 -109.723,246.528 -246.528,246.528l-484.722,-0c-136.632,-0 -246.528,-109.723 -246.528,-246.528l-0,-484.722c-0,-136.632 109.722,-246.528 246.528,-246.528Zm575.694,88.889c-36.805,-0 -66.667,29.861 -66.667,66.666c0,36.806 29.862,66.667 66.667,66.667c36.806,0 66.667,-29.861 66.667,-66.667c-0,-36.805 -29.861,-66.666 -66.667,-66.666Zm-333.333,88.889c-171.354,-0 -311.111,139.757 -311.111,311.111c-0,171.354 139.757,311.111 311.111,311.111c171.354,-0 311.111,-139.757 311.111,-311.111c-0,-171.354 -139.757,-311.111 -311.111,-311.111Zm-0,88.889c123.264,-0 222.222,98.958 222.222,222.222c0,123.264 -98.958,222.222 -222.222,222.222c-123.264,0 -222.222,-98.958 -222.222,-222.222c-0,-123.264 98.958,-222.222 222.222,-222.222Z" style="fill:#fff;fill-rule:nonzero;"/></svg>