<?xml version="1.0" encoding="UTF-8" standalone="no"?><!DOCTYPE svg PUBLIC "-//W3C//DTD SVG 1.1//EN" "http://www.w3.org/Graphics/SVG/1.1/DTD/svg11.dtd"><svg width="100%" height="100%" viewBox="0 0 934 912" version="1.1" xmlns="http://www.w3.org/2000/svg" xmlns:xlink="http://www.w3.org/1999/xlink" xml:space="preserve" xmlns:serif="http://www.serif.com/" style="fill-rule:evenodd;clip-rule:evenodd;stroke-linecap:round;stroke-linejoin:round;stroke-miterlimit:1.5;"><g><g><path d="M444.083,325.5l-130.983,-8.344l-108.239,-40.762" style="fill:none;stroke:#fffa00;stroke-width:20.83px;"/><path d="M693.794,666.689c-18.511,10.578 -23.372,36.961 -10.85,58.883c12.523,21.922 37.723,31.134 56.234,20.556c18.511,-10.572 23.372,-36.961 10.85,-58.878c-12.528,-21.922 -37.722,-31.139 -56.234,-20.561Z" style="fill:none;stroke:#fffa00;stroke-width:20.83px;"/><path d="M484.739,281.483c-21.339,-0.927 -39.556,18.795 -40.656,44.017c-1.1,25.222 15.334,46.456 36.673,47.389c21.338,0.928 39.555,-18.795 40.65,-44.017c1.1,-25.228 -15.328,-46.461 -36.667,-47.389Z" style="fill:none;stroke:#fffa00;stroke-width:20.83px;"/><path d="M172.161,218.483c-19.955,-0.866 -37.044,18.906 -38.144,44.128c-1.1,25.222 14.205,46.406 34.161,47.278c19.95,0.867 37.044,-18.906 38.144,-44.128c1.095,-25.222 -14.211,-46.405 -34.161,-47.278Z" style="fill:none;stroke:#fffa00;stroke-width:20.83px;"/><path d="M689.244,669.817l-75.294,-99.628l-109.983,-205.128" style="fill:none;stroke:#fffa00;stroke-width:20.83px;"/></g><g><path d="M313.311,13.228l-0.611,881.878" style="fill:none;stroke:#fffa00;stroke-width:20.83px;"/><path d="M313.311,13.228l300.639,37.655c-0,0 153.739,-18.839 243.744,-29.866c16.056,-1.967 32.178,3.083 44.245,13.861c12.067,10.772 18.9,26.228 18.755,42.4c-1.461,162.611 -5.305,589.889 -6.755,750.944c-0.145,15.967 -7.067,31.122 -19.039,41.684c-11.978,10.561 -27.878,15.533 -43.733,13.683c-86.923,-10.156 -234.178,-27.356 -234.178,-27.356l-304.289,38.873c-0,-0 -165.861,-20.439 -251.194,-30.956c-28.223,-3.478 -49.412,-27.472 -49.367,-55.911c0.217,-144.539 0.85,-562.833 1.067,-706.783c0.038,-28.239 21.016,-52.073 49.022,-55.7c85.039,-11.017 251.083,-32.528 251.083,-32.528Z" style="fill:none;stroke:#fffa00;stroke-width:20.83px;"/><path d="M613.95,50.883l3.039,805.35" style="fill:none;stroke:#fffa00;stroke-width:20.83px;"/></g></g></svg>