<?xml version="1.0" encoding="UTF-8" standalone="no"?><!DOCTYPE svg PUBLIC "-//W3C//DTD SVG 1.1//EN" "http://www.w3.org/Graphics/SVG/1.1/DTD/svg11.dtd"><svg width="100%" height="100%" viewBox="0 0 38 29" version="1.1" xmlns="http://www.w3.org/2000/svg" xmlns:xlink="http://www.w3.org/1999/xlink" xml:space="preserve" xmlns:serif="http://www.serif.com/" style="fill-rule:evenodd;clip-rule:evenodd;stroke-linejoin:round;stroke-miterlimit:2;"><path d="M37.008,14.063l-25.203,-13.593c-0.712,-0.384 -1.546,0.256 -1.359,1.044l2.755,11.575c0.087,0.365 0.383,0.644 0.753,0.708l3.549,0.615l-3.576,0.437c-0.372,0.046 -0.682,0.308 -0.787,0.669l-3.331,11.423c-0.227,0.778 0.575,1.457 1.305,1.11l25.852,-12.314c0.694,-0.331 0.715,-1.311 0.042,-1.674Zm-24.811,11.392l2.572,-8.818l9.27,-1.133c0.462,-0.056 0.812,-0.442 0.824,-0.908c0.012,-0.465 -0.319,-0.869 -0.778,-0.948l-9.201,-1.595l-2.127,-8.936l21.732,11.72l-22.292,10.618Zm-2.471,-10.299l-8.811,-0.221c-0.518,-0.013 -0.928,-0.443 -0.915,-0.961c0.013,-0.519 0.444,-0.928 0.962,-0.915l8.811,0.221c0.518,0.012 0.928,0.443 0.914,0.961c-0.013,0.519 -0.443,0.928 -0.961,0.915Zm-5.845,-5.803c0.013,-0.519 0.443,-0.928 0.962,-0.915l3.476,0.087c0.518,0.013 0.928,0.444 0.915,0.962c-0.013,0.518 -0.444,0.928 -0.962,0.915l-3.477,-0.087c-0.517,-0.013 -0.927,-0.444 -0.914,-0.962Zm5.117,9.564c-0.013,0.518 -0.444,0.928 -0.962,0.915l-3.477,-0.088c-0.259,-0.006 -0.491,-0.117 -0.656,-0.291c-0.571,-0.6 -0.135,-1.606 0.703,-1.585l3.477,0.087c0.518,0.013 0.928,0.444 0.915,0.962Z" style="fill-rule:nonzero;"/></svg>