<?xml version="1.0" encoding="UTF-8" standalone="no"?><!DOCTYPE svg PUBLIC "-//W3C//DTD SVG 1.1//EN" "http://www.w3.org/Graphics/SVG/1.1/DTD/svg11.dtd"><svg width="100%" height="100%" viewBox="0 0 60 49" version="1.1" xmlns="http://www.w3.org/2000/svg" xmlns:xlink="http://www.w3.org/1999/xlink" xml:space="preserve" xmlns:serif="http://www.serif.com/" style="fill-rule:evenodd;clip-rule:evenodd;stroke-linejoin:round;stroke-miterlimit:2;"><path d="M18.889,48.713c22.603,0 34.963,-18.725 34.963,-34.963c-0,-0.532 -0.011,-1.061 -0.035,-1.588c2.399,-1.735 4.485,-3.899 6.13,-6.363c-2.202,0.978 -4.571,1.638 -7.057,1.935c2.537,-1.521 4.485,-3.928 5.403,-6.798c-2.374,1.408 -5.003,2.432 -7.802,2.983c-2.242,-2.388 -5.436,-3.882 -8.97,-3.882c-6.786,-0 -12.29,5.503 -12.29,12.287c0,0.965 0.108,1.902 0.319,2.802c-10.212,-0.514 -19.268,-5.404 -25.328,-12.839c-1.057,1.816 -1.665,3.926 -1.665,6.176c0,4.264 2.17,8.027 5.469,10.229c-2.016,-0.062 -3.91,-0.616 -5.566,-1.537c-0.003,0.051 -0.003,0.102 -0.003,0.156c0,5.952 4.237,10.921 9.859,12.047c-1.032,0.281 -2.118,0.432 -3.239,0.432c-0.792,0 -1.562,-0.078 -2.31,-0.221c1.564,4.882 6.1,8.435 11.479,8.535c-4.206,3.296 -9.504,5.26 -15.262,5.26c-0.991,-0 -1.969,-0.057 -2.931,-0.17c5.438,3.485 11.896,5.519 18.836,5.519Z" style="fill:#fff;fill-rule:nonzero;"/></svg>