<?xml version="1.0" encoding="UTF-8" standalone="no"?><!DOCTYPE svg PUBLIC "-//W3C//DTD SVG 1.1//EN" "http://www.w3.org/Graphics/SVG/1.1/DTD/svg11.dtd"><svg width="100%" height="100%" viewBox="0 0 122 159" version="1.1" xmlns="http://www.w3.org/2000/svg" xmlns:xlink="http://www.w3.org/1999/xlink" xml:space="preserve" xmlns:serif="http://www.serif.com/" style="fill-rule:evenodd;clip-rule:evenodd;stroke-linejoin:round;stroke-miterlimit:2;"><g id="tete"><g><path d="M106.779,79.287c0.63,-0.822 1.424,-1.262 2.421,-1.228c0.598,0.02 1.101,-0.45 1.121,-1.049c0.021,-0.599 -0.449,-1.102 -1.048,-1.122c-1.727,-0.058 -3.125,0.653 -4.218,2.077c-0.365,0.476 -0.274,1.158 0.201,1.523c0.476,0.365 1.158,0.275 1.523,-0.201Z" style="fill:#fff;"/><path d="M105.29,84.027c-1.172,-4.199 -0.33,-7.969 1.353,-11.565c0.254,-0.543 0.901,-0.778 1.444,-0.523c0.543,0.254 0.778,0.901 0.523,1.444c-1.626,3.476 -2.402,7.136 -0.823,11.291c0.139,0.362 0.073,0.77 -0.172,1.071c-0.244,0.3 -0.63,0.448 -1.012,0.388c-0.452,-0.071 -0.819,-0.042 -1.108,0.126c-0.293,0.171 -0.491,0.469 -0.652,0.835c-0.478,1.087 -0.579,2.69 -0.559,4.516c0.007,0.6 -0.475,1.092 -1.074,1.099c-0.6,0.007 -1.092,-0.475 -1.099,-1.074c-0.024,-2.194 0.169,-4.109 0.743,-5.415c0.365,-0.831 0.882,-1.45 1.547,-1.837c0.269,-0.157 0.564,-0.278 0.889,-0.356Z" style="fill:#fff;"/><path d="M14.079,87.298l2.43,4.814c0.271,0.535 0.925,0.751 1.459,0.48c0.536,-0.27 0.751,-0.924 0.481,-1.459l-2.431,-4.814c-0.27,-0.535 -0.924,-0.751 -1.459,-0.48c-0.535,0.27 -0.751,0.924 -0.48,1.459Z" style="fill:#fff;"/><path d="M16.568,79.955c-0.762,-2.447 -1.813,-3.549 -2.828,-3.909c-0.809,-0.287 -1.68,-0.181 -2.58,0.281c-0.534,0.272 -0.745,0.928 -0.471,1.461c0.273,0.534 0.928,0.745 1.461,0.471c0.251,-0.127 0.487,-0.217 0.72,-0.197c0.233,0.021 0.431,0.176 0.635,0.428c0.366,0.449 0.687,1.14 0.989,2.111c0.178,0.572 0.787,0.893 1.36,0.714c0.572,-0.178 0.893,-0.788 0.714,-1.36Z" style="fill:#fff;"/><path d="M15.259,87.874c-0.289,0.057 -0.594,-0.005 -0.841,-0.181c-0.348,-0.248 -0.518,-0.677 -0.435,-1.096c0.719,-3.625 0.914,-7.871 -1.052,-12.898c-0.218,-0.558 0.057,-1.189 0.616,-1.407c0.558,-0.218 1.189,0.057 1.407,0.616c1.879,4.803 1.96,8.954 1.428,12.572c0.305,0.115 0.534,0.327 0.696,0.644c0.086,0.168 0.153,0.398 0.193,0.678c0.033,0.232 0.034,0.558 0.205,0.879c0.08,0.152 0.123,0.32 0.126,0.491c0.024,1.559 0.671,1.893 0.872,2.243c0.18,0.313 0.294,0.63 0.225,1.031c2.158,2.997 2.996,5.783 3.047,8.427c0.011,0.599 -0.466,1.096 -1.066,1.107c-0.599,0.011 -1.095,-0.466 -1.107,-1.065c-0.045,-2.392 -0.879,-4.904 -2.958,-7.635c-0.214,-0.28 -0.275,-0.643 -0.176,-0.971c-0.097,-0.123 -0.221,-0.289 -0.316,-0.437c-0.308,-0.481 -0.633,-1.19 -0.687,-2.435c-0.073,-0.183 -0.131,-0.379 -0.177,-0.563Z" style="fill:#fff;"/><path d="M52.973,5.937c1.079,-0.774 2.206,-1.734 3.406,-2.973l0.731,-0.331c18.302,-0.829 24.403,3.747 29.444,7.064c3.075,2.024 5.711,3.569 10.938,2.794c0.478,-0.071 0.943,0.181 1.146,0.619c0.202,0.438 0.091,0.957 -0.272,1.274c-1.552,1.354 -3.129,2.391 -4.732,2.979c2.85,1.462 5.013,3.024 6.374,4.678c1.232,1.497 1.85,3.08 1.821,4.748c6.513,3.899 8.72,8.972 7.532,14.946c2.958,4.729 3.655,10.773 3.33,15.538c-0.229,3.354 -0.978,6.079 -1.744,7.333c-0.548,0.9 -1.241,1.221 -1.775,1.21c-0.062,-0.001 -0.125,-0.006 -0.188,-0.015l-0.228,6.013c1.167,0.062 2.106,0.385 2.871,0.863c1.496,0.937 2.338,2.51 2.837,4.121c0.279,0.901 0.346,2.466 0.267,4.219c-0.172,3.784 -0.949,8.504 -0.949,8.504c-0.023,0.14 -0.073,0.275 -0.148,0.395l-2.919,4.722c-0.392,3.246 -1.136,5.597 -2.086,7.062c-0.802,1.234 -1.773,1.909 -2.816,2.109c-1.163,0.224 -2.517,-0.168 -3.935,-1.312c-2.318,15.352 -4.452,15.776 -9.77,22.256c-5.531,6.742 -16.72,13.443 -23.148,16.161c-4.926,2.083 -11.278,2.553 -16.044,0.126c-7.275,-3.708 -22.813,-15.627 -28.341,-22.406c-1.659,-2.036 -2.827,-5.476 -3.59,-8.889c-0.651,-2.903 -1.024,-5.774 -1.22,-7.648c-1.718,1.184 -3.599,1.645 -5.112,1.092c-1.097,-0.402 -2.075,-1.305 -2.692,-2.924c-0.488,-1.281 -0.759,-3.065 -0.664,-5.457c-3.278,-3.952 -5.346,-8.08 -3.148,-12.761c-1.664,-5.043 0.355,-8.64 2.654,-9.773c0.515,-0.253 1.049,-0.398 1.581,-0.429l-2.114,-7.234c-4.217,-8.124 -2.698,-14.112 -0.41,-18.809c0.809,-1.659 1.726,-3.145 2.495,-4.5c-0.434,-4.652 0.105,-8.189 1.248,-11.002c1.287,-3.169 3.35,-5.438 5.733,-7.343l-2.428,-1.61c-0.461,-0.306 -0.619,-0.91 -0.366,-1.402c0.253,-0.492 0.836,-0.716 1.353,-0.518c0.41,0.156 0.694,0.327 1.02,0.312c0.301,-0.015 0.6,-0.224 1.093,-0.617c0.982,-0.786 2.392,-2.226 4.718,-4.702c3.692,-3.931 5.938,-4.188 8.66,-4.477c2.39,-0.252 5.198,-0.53 10.13,-4.047c0.193,-0.138 0.425,-0.208 0.66,-0.202l8.797,0.243Zm41.005,8.917c-3.59,-0.19 -5.964,-1.595 -8.618,-3.342c-4.779,-3.145 -10.564,-7.43 -27.726,-6.726c-1.313,1.322 -2.545,2.337 -3.727,3.155c-1.675,1.278 -3.426,2.097 -5.204,2.773c-0.553,0.21 -1.172,-0.061 -1.393,-0.609c-0.222,-0.548 0.036,-1.172 0.579,-1.405c0.508,-0.217 1.018,-0.442 1.533,-0.688l-4.944,-0.136c-5.246,3.672 -8.281,3.955 -10.863,4.229c-2.3,0.242 -4.187,0.481 -7.306,3.802c-2.432,2.591 -3.917,4.089 -4.944,4.911c-0.225,0.18 -0.434,0.332 -0.632,0.459l0.455,0.301c1.036,-0.723 2.106,-1.407 3.178,-2.09c0.502,-0.32 1.169,-0.175 1.494,0.324c0.325,0.499 0.186,1.168 -0.31,1.497l-3.745,2.488l-0.07,0.042c-2.544,1.848 -4.797,4.026 -6.119,7.278c-0.743,1.829 -1.187,3.99 -1.236,6.61c0.201,-0.079 0.427,-0.101 0.651,-0.048c0.547,0.13 0.906,0.654 0.827,1.211l-0.856,6.009c-0.075,0.529 -0.523,0.924 -1.056,0.934c-0.533,0.009 -0.994,-0.37 -1.088,-0.895l-0.023,-0.125c-2.515,4.5 -5.035,10.4 -0.59,18.89c0.034,0.063 0.061,0.13 0.081,0.199l2.659,9.096c0.125,0.431 -0.025,0.893 -0.38,1.166c-0.354,0.273 -0.84,0.3 -1.223,0.07c-0.7,-0.421 -1.543,-0.201 -2.219,0.397c-1.36,1.204 -2.045,3.776 -0.82,7.115c0.106,0.287 0.085,0.605 -0.057,0.876c-2.152,4.128 0.019,7.66 2.945,11.111c0.18,0.212 0.272,0.485 0.256,0.763c-0.124,2.212 0.066,3.846 0.504,4.995c0.338,0.886 0.808,1.438 1.409,1.658c0.608,0.222 1.303,0.106 2.005,-0.192c0.854,-0.361 1.706,-1.001 2.462,-1.806c0.297,-0.317 0.753,-0.426 1.16,-0.279c0.409,0.147 0.689,0.521 0.717,0.954c0,-0 0.292,4.679 1.36,9.445c0.686,3.057 1.669,6.166 3.155,7.99c5.391,6.611 20.548,18.227 27.643,21.843c4.222,2.15 9.848,1.654 14.212,-0.191c6.191,-2.618 16.988,-9.045 22.315,-15.538c5.306,-6.466 7.272,-6.631 9.608,-23.312c0.059,-0.425 0.363,-0.774 0.774,-0.893c0.412,-0.119 0.855,0.015 1.132,0.343c0.719,0.852 1.407,1.471 2.069,1.841c0.495,0.276 0.957,0.405 1.391,0.322c0.717,-0.138 1.272,-0.794 1.774,-1.82c0.652,-1.33 1.127,-3.237 1.408,-5.707c0.018,-0.159 0.071,-0.313 0.156,-0.449l2.931,-4.742c0.148,-0.937 0.743,-4.834 0.888,-8.04c0.066,-1.444 0.058,-2.736 -0.171,-3.477c-0.349,-1.126 -0.87,-2.268 -1.915,-2.923c-0.678,-0.424 -1.572,-0.622 -2.748,-0.513c-0.311,0.028 -0.62,-0.079 -0.847,-0.294c-0.226,-0.215 -0.35,-0.517 -0.338,-0.829l0.413,-10.863c0.022,-0.563 0.47,-1.017 1.032,-1.045c0.564,-0.027 1.054,0.381 1.13,0.94c0.051,0.378 0.139,0.753 0.226,1.066c0.018,-0.038 0.035,-0.075 0.05,-0.111c0.34,-0.816 0.642,-1.963 0.859,-3.324c0.747,-4.66 0.502,-11.786 -2.95,-16.999c-0.164,-0.247 -0.219,-0.55 -0.154,-0.838c1.222,-5.42 -0.886,-9.927 -6.984,-13.376c-0.385,-0.217 -0.6,-0.646 -0.543,-1.085c0.225,-1.736 -0.608,-3.308 -2.213,-4.796c-1.831,-1.7 -4.624,-3.255 -8.186,-4.721c-0.512,-0.212 -0.784,-0.774 -0.63,-1.307c0.153,-0.531 0.683,-0.863 1.229,-0.769c1.421,0.247 2.8,-0.085 4.158,-0.8Z" style="fill:#fff;"/></g><path d="M52.975,5.937c1.079,-0.774 2.204,-1.734 3.404,-2.973l0.731,-0.331c18.302,-0.829 24.403,3.747 29.444,7.064c3.075,2.024 5.711,3.569 10.938,2.794c0.478,-0.071 0.943,0.181 1.146,0.619c0.202,0.438 0.091,0.957 -0.272,1.274c-1.552,1.354 -3.129,2.391 -4.732,2.979c2.85,1.462 5.013,3.024 6.374,4.678c1.232,1.497 1.85,3.08 1.821,4.748c6.513,3.899 8.72,8.972 7.532,14.946c2.958,4.729 3.655,10.773 3.33,15.538c-0.229,3.354 -0.978,6.079 -1.744,7.333c-0.548,0.9 -1.241,1.221 -1.775,1.21c-0.204,-0.004 -0.415,-0.046 -0.623,-0.144l-4.279,26.126c-0.087,0.526 -0.542,0.912 -1.074,0.911c-0.533,-0.001 -0.987,-0.389 -1.071,-0.914c-1.298,-8.111 -2.312,-16.789 -1.341,-29.437c0.097,-1.302 -0.304,-2.583 -0.891,-3.896c-0.657,-1.467 -1.552,-2.963 -2.387,-4.54c-1.627,-3.067 -3.013,-6.418 -2.415,-10.342c-1.481,0.082 -3.822,0.22 -5.954,-0.164c-1.862,-0.334 -3.553,-1.067 -4.612,-2.395c-1.66,1 -3.402,1.78 -5.41,1.832c-1.655,0.043 -3.512,-0.4 -5.667,-1.679c-0.075,0.437 -0.289,0.779 -0.591,1.039c-0.395,0.339 -1.055,0.573 -2.024,0.496c-1.353,-0.109 -3.6,-0.834 -6.715,-2.216c-1.753,1.017 -3.552,1.329 -5.402,0.679c-0.215,-0.076 -0.401,-0.218 -0.532,-0.406c-2.715,-3.915 -5.473,-6.705 -8.338,-8.072c-0.984,2.163 0.242,5.061 2.907,5.12c0.449,0.01 0.845,0.293 0.998,0.715c0.153,0.421 0.031,0.893 -0.306,1.189c-2.902,2.54 -6.067,2.456 -9.88,0.917c-2.335,-0.942 -4.941,-2.451 -7.919,-4.14c0.972,1.04 2.056,1.987 3.258,2.839c0.322,0.228 0.495,0.613 0.451,1.006c-0.043,0.392 -0.296,0.73 -0.66,0.882c-3.182,1.33 -7.131,0.818 -11.763,-1.569c0.466,2.448 -0.53,4.721 -1.595,7.13c-1.238,2.806 -2.541,5.84 -0.228,9.851c0.204,0.282 0.398,0.594 0.583,0.931c0.278,0.508 0.108,1.146 -0.387,1.449c-0.494,0.301 -1.139,0.162 -1.465,-0.317c-0.2,-0.294 -0.382,-0.584 -0.55,-0.87c-0.405,-0.537 -0.874,-0.895 -1.456,-0.937c0.164,0.957 0.521,1.893 0.717,2.815c0.339,1.605 0.292,3.164 -1.068,4.696c-0.812,0.915 -1.088,1.998 -1.102,3.21c-0.019,1.409 0.302,2.976 0.674,4.673c1.229,5.613 2.98,12.496 -2.553,19.79c-0.028,0.036 -0.057,0.07 -0.089,0.102c-0.033,0.057 -0.072,0.111 -0.116,0.162c-0.343,0.393 -0.918,0.486 -1.367,0.221c-0.338,-0.198 -0.504,-0.437 -0.572,-0.673c-0.538,-0.971 -0.831,-2.558 -1.046,-4.699c-0.487,-4.827 -0.834,-12.767 -5.013,-22.518c-5.77,-11.061 -0.92,-18.137 2.055,-23.387c-0.921,-9.858 2.466,-14.742 6.973,-18.331l-2.419,-1.604c-0.461,-0.306 -0.619,-0.91 -0.366,-1.402c0.253,-0.492 0.836,-0.716 1.353,-0.518c0.41,0.156 0.694,0.327 1.02,0.312c0.301,-0.015 0.6,-0.224 1.093,-0.617c0.982,-0.786 2.392,-2.226 4.718,-4.702c3.692,-3.931 5.938,-4.188 8.66,-4.477c2.39,-0.252 5.198,-0.53 10.13,-4.047c0.193,-0.138 0.425,-0.208 0.66,-0.202l8.799,0.243Zm41.003,8.917c-3.59,-0.19 -5.964,-1.595 -8.618,-3.342c-4.779,-3.145 -10.564,-7.43 -27.726,-6.726c-1.297,1.305 -2.516,2.311 -3.686,3.124c-1.688,1.296 -3.453,2.123 -5.245,2.804c-0.553,0.21 -1.172,-0.061 -1.393,-0.609c-0.222,-0.547 0.036,-1.172 0.579,-1.405c0.508,-0.217 1.018,-0.442 1.533,-0.688l-4.944,-0.136c-5.246,3.672 -8.281,3.955 -10.863,4.229c-2.3,0.242 -4.187,0.481 -7.306,3.802c-2.432,2.591 -3.917,4.089 -4.944,4.911c-0.225,0.18 -0.434,0.332 -0.632,0.459l0.451,0.299c1.036,-0.722 2.109,-1.405 3.182,-2.088c0.502,-0.32 1.169,-0.175 1.494,0.324c0.325,0.499 0.186,1.168 -0.31,1.497l-3.723,2.473c-4.005,2.899 -7.288,6.604 -7.441,13.943c0.199,-0.078 0.423,-0.098 0.645,-0.046c0.547,0.13 0.906,0.654 0.827,1.211l-0.856,6.009c-0.075,0.529 -0.523,0.924 -1.055,0.934c-0.534,0.009 -0.995,-0.37 -1.089,-0.894l-0.024,-0.134c-2.53,4.515 -5.026,10.422 -0.589,18.898l0.037,0.075c4.311,10.044 4.69,18.221 5.192,23.192c0.091,0.907 0.171,1.695 0.29,2.35c3.785,-6.098 2.205,-11.839 1.169,-16.571c-0.411,-1.874 -0.745,-3.608 -0.725,-5.165c0.022,-1.754 0.476,-3.302 1.65,-4.625c1.008,-1.137 0.716,-2.316 0.392,-3.518c-0.302,-1.122 -0.665,-2.269 -0.677,-3.437c-0.004,-0.461 0.284,-0.875 0.716,-1.031c0.598,-0.217 1.152,-0.31 1.665,-0.291c-0.872,-3.373 0.24,-6.159 1.397,-8.776c1.208,-2.737 2.564,-5.244 0.298,-8.263c-0.316,-0.42 -0.284,-1.007 0.075,-1.392c0.358,-0.385 0.941,-0.458 1.383,-0.172c4.193,2.708 7.787,4.01 10.78,3.653c-2.015,-1.732 -3.676,-3.755 -5.008,-6.047c-0.243,-0.419 -0.18,-0.949 0.156,-1.298c0.337,-0.35 0.863,-0.435 1.292,-0.207c4.793,2.54 8.701,5.09 12.05,6.441c2.113,0.852 3.974,1.213 5.686,0.624c-2.386,-1.428 -3.348,-4.647 -2.267,-7.277c-0.729,-0.167 -1.465,-0.235 -2.206,-0.201c-0.572,0.026 -1.066,-0.396 -1.13,-0.965c-0.063,-0.569 0.326,-1.09 0.89,-1.19l6.64,-1.174c0.568,-0.1 1.115,0.26 1.247,0.821c0.132,0.562 -0.197,1.127 -0.751,1.291c-0.42,0.124 -0.795,0.287 -1.123,0.481c2.864,1.548 5.669,4.329 8.388,8.186c1.266,0.328 2.485,-0.063 3.685,-0.857c0.312,-0.207 0.707,-0.238 1.048,-0.084c2.93,1.328 5.049,2.093 6.363,2.251c0.12,0.014 0.253,0.017 0.368,0.014c-0.099,-0.271 -0.275,-0.706 -0.508,-1.082c-0.13,-0.211 -0.278,-0.433 -0.444,-0.669c-0.314,-0.448 -0.246,-1.06 0.159,-1.428c0.404,-0.368 1.019,-0.378 1.435,-0.023c2.926,2.496 5.213,3.394 7.202,3.342c1.685,-0.044 3.124,-0.757 4.508,-1.618c-0.035,-0.135 -0.064,-0.274 -0.089,-0.417c-0.061,-0.359 0.06,-0.724 0.324,-0.974c0.265,-0.249 0.636,-0.351 0.99,-0.269l1.425,0.327c0.424,0.098 0.748,0.437 0.826,0.864c0.077,0.427 -0.106,0.86 -0.468,1.099l-0.215,0.144c0.746,0.826 1.926,1.219 3.161,1.441c2.857,0.514 6.099,0.036 6.99,0.099c0.324,0.022 0.62,0.188 0.809,0.452c0.187,0.265 0.248,0.598 0.165,0.912c-1.277,4.773 1.051,8.556 2.959,12.033c1.464,2.669 2.695,5.191 2.507,7.747c-0.682,8.871 -0.369,15.755 0.331,21.866l3.685,-22.503c0.087,-0.531 0.549,-0.918 1.087,-0.911c0.538,0.008 0.989,0.407 1.062,0.941c0.051,0.378 0.139,0.753 0.226,1.066c0.018,-0.038 0.035,-0.075 0.05,-0.111c0.34,-0.816 0.642,-1.963 0.859,-3.324c0.747,-4.66 0.502,-11.786 -2.95,-16.999c-0.164,-0.247 -0.219,-0.55 -0.154,-0.838c1.222,-5.42 -0.886,-9.927 -6.984,-13.376c-0.385,-0.217 -0.6,-0.646 -0.543,-1.085c0.225,-1.736 -0.608,-3.308 -2.213,-4.796c-1.831,-1.7 -4.624,-3.255 -8.186,-4.721c-0.512,-0.212 -0.784,-0.774 -0.63,-1.307c0.153,-0.531 0.683,-0.863 1.229,-0.769c1.421,0.247 2.8,-0.085 4.158,-0.8Z" style="fill:#fff;"/><g><g><path d="M66.431,122.108c-4.005,1.832 -7.836,1.854 -11.499,0.08c-0.54,-0.262 -1.19,-0.036 -1.451,0.504c-0.262,0.539 -0.036,1.189 0.504,1.451c4.252,2.059 8.7,2.066 13.35,-0.059c0.545,-0.25 0.786,-0.894 0.536,-1.44c-0.249,-0.545 -0.894,-0.786 -1.44,-0.536Z" style="fill:#fff;"/><path d="M72.361,116.769l-0.459,-0.352c-0.384,-0.295 -0.526,-0.808 -0.35,-1.259c0.177,-0.451 0.631,-0.73 1.112,-0.685c0,-0 2.366,0.252 3.018,2.343l0.007,0.023c0.62,2.038 -0.601,3.56 -0.601,3.56c-0.37,0.472 -1.053,0.555 -1.525,0.185c-0.472,-0.37 -0.554,-1.053 -0.185,-1.525c-0,0 0.109,-0.146 0.198,-0.394c-8.408,2.695 -16.817,2.751 -25.224,0.314l0.095,0.662c0.085,0.584 -0.312,1.128 -0.895,1.226c-0.581,0.097 -1.135,-0.287 -1.247,-0.867c-0.18,-0.942 -0.336,-1.814 -0.359,-2.517l0,-0.018l-0,-0.008l-0,-0.034l0,-0.023c0.032,-1.736 1.29,-2.657 3.422,-2.845l0.004,-0l0.017,-0.001c0.594,-0.052 1.119,0.386 1.174,0.981c0.056,0.593 -0.378,1.121 -0.972,1.182c-0.293,0.029 -0.547,0.073 -0.767,0.136c7.846,2.298 15.691,2.316 23.537,-0.084Z" style="fill:#fff;"/></g><g><path d="M28.64,81.438c-0.164,0.375 -0.104,0.809 0.156,1.125c1.367,1.666 3.478,2.737 6.182,3.292c3.731,0.767 8.652,0.565 14.172,-0.153c0.194,-0.026 0.378,-0.103 0.531,-0.224l6.965,-5.486c0.286,-0.225 0.44,-0.577 0.411,-0.939c-0.184,-2.314 -2.252,-3.875 -5.278,-4.678c-4.785,-1.269 -11.957,-0.826 -14.775,-0.514c-0.931,0.103 -1.491,0.259 -1.563,0.299c-3.425,1.871 -4.506,2.049 -6.801,7.278Zm26.134,-2.736c-0.155,-0.4 -0.444,-0.736 -0.822,-1.028c-0.688,-0.531 -1.639,-0.909 -2.73,-1.199c-4.527,-1.201 -11.313,-0.75 -13.98,-0.455c-0.374,0.042 -0.742,0.096 -0.896,0.12c-2.691,1.461 -3.674,1.724 -5.425,5.525c1.082,1.035 2.622,1.678 4.494,2.062c3.476,0.714 8.038,0.511 13.158,-0.142l6.201,-4.883Z" style="fill:#fff;"/><path d="M91.738,82.563c0.26,-0.316 0.32,-0.75 0.156,-1.126c-2.296,-5.228 -3.376,-5.406 -6.802,-7.278c-0.072,-0.04 -0.632,-0.195 -1.562,-0.298c-2.819,-0.312 -9.991,-0.755 -14.776,0.514c-3.026,0.803 -5.094,2.364 -5.278,4.678c-0.029,0.362 0.125,0.714 0.411,0.939l6.966,5.486c0.153,0.121 0.337,0.198 0.531,0.224c5.52,0.718 10.441,0.92 14.172,0.153c2.704,-0.555 4.814,-1.626 6.182,-3.292Zm-7.55,-6.423c-0.154,-0.024 -0.522,-0.078 -0.897,-0.119c-2.667,-0.296 -9.453,-0.747 -13.98,0.454c-1.091,0.29 -2.042,0.668 -2.73,1.199c-0.377,0.292 -0.667,0.627 -0.822,1.028l6.202,4.883c5.12,0.653 9.681,0.856 13.158,0.142c1.871,-0.384 3.412,-1.027 4.494,-2.062c-1.752,-3.801 -2.734,-4.064 -5.425,-5.525Z" style="fill:#fff;"/></g><g><path d="M77.892,76.53c-1.833,-0 -3.322,1.489 -3.322,3.322c0,1.834 1.489,3.322 3.322,3.322c1.834,0 3.323,-1.488 3.323,-3.322c-0,-1.833 -1.489,-3.322 -3.323,-3.322Zm0,2.172c0.635,0 1.15,0.516 1.15,1.15c0,0.634 -0.515,1.15 -1.15,1.15c-0.634,-0 -1.149,-0.516 -1.149,-1.15c-0,-0.634 0.515,-1.15 1.149,-1.15Z" style="fill:#fff;"/><path d="M41.663,76.53c-1.833,-0 -3.322,1.489 -3.322,3.322c-0,1.834 1.489,3.322 3.322,3.322c1.834,0 3.322,-1.488 3.322,-3.322c0,-1.833 -1.488,-3.322 -3.322,-3.322Zm0,2.172c0.635,0 1.15,0.516 1.15,1.15c-0,0.634 -0.515,1.15 -1.15,1.15c-0.634,-0 -1.15,-0.516 -1.15,-1.15c0,-0.634 0.516,-1.15 1.15,-1.15Z" style="fill:#fff;"/></g><path d="M60.649,89.427c-0.395,3.786 1.611,7.264 2.895,10.074c0.36,0.788 0.656,1.513 0.767,2.17c0.074,0.438 0.067,0.835 -0.162,1.172c-0.853,1.258 -2.775,2.116 -4.565,2.255c-1.086,0.084 -2.143,-0.086 -2.831,-0.736c-0.742,-0.702 -0.942,-1.914 -0.473,-3.737c0.148,-0.582 -0.202,-1.174 -0.782,-1.323c-0.582,-0.149 -1.174,0.202 -1.323,0.782c-0.74,2.882 -0.088,4.746 1.085,5.855c1.1,1.042 2.753,1.46 4.493,1.326c2.451,-0.191 5.025,-1.48 6.193,-3.202c0.542,-0.798 0.682,-1.716 0.507,-2.753c-0.138,-0.818 -0.484,-1.729 -0.933,-2.712c-1.145,-2.505 -3.063,-5.569 -2.711,-8.945c0.063,-0.597 -0.371,-1.132 -0.967,-1.193c-0.597,-0.063 -1.131,0.371 -1.193,0.967Z" style="fill:#fff;"/><g><path d="M64.696,66.039c-0.311,0.073 -0.575,0.279 -0.72,0.564c-0.821,1.608 -0.645,3.219 0.431,4.827c0.189,0.281 0.498,0.46 0.836,0.48c5.114,0.317 8.318,-0.677 11.425,-1.492c4.348,-1.142 8.489,-1.849 18.151,2.558c0.471,0.214 1.026,0.068 1.33,-0.35c0.303,-0.417 0.271,-0.99 -0.077,-1.372c-5.961,-6.515 -15.96,-8.829 -31.376,-5.215Zm22.577,1.93c-5.342,-1.943 -12.416,-2.013 -21.535,0.059c-0.167,0.582 -0.078,1.162 0.212,1.744c4.479,0.191 7.364,-0.719 10.166,-1.455c3.179,-0.835 6.259,-1.49 11.157,-0.348Z" style="fill:#fff;"/><path d="M57.601,66.603c-0.145,-0.285 -0.408,-0.491 -0.719,-0.564c-15.415,-3.614 -25.416,-1.3 -31.376,5.215c-0.348,0.382 -0.381,0.955 -0.077,1.372c0.304,0.418 0.859,0.564 1.329,0.35c9.663,-4.407 13.804,-3.7 18.152,-2.558c3.106,0.815 6.31,1.809 11.424,1.492c0.338,-0.02 0.647,-0.198 0.835,-0.479c1.079,-1.609 1.254,-3.22 0.432,-4.828Zm-1.761,1.426c-9.119,-2.073 -16.194,-2.003 -21.535,-0.06c4.897,-1.142 7.978,-0.487 11.157,0.348c2.802,0.736 5.687,1.646 10.166,1.455c0.29,-0.582 0.379,-1.162 0.212,-1.743Z" style="fill:#fff;"/></g></g><g><path d="M56.355,81.001c2.648,-2.187 5.438,-2.569 8.42,-0.498l-0.171,1.371c-2.233,-1.434 -4.642,-2.294 -8.131,0.376l-0.118,-1.249Z" style="fill:#fff;"/><path d="M94.089,81.051l10.868,-9.137c0.701,-0.606 1.655,0.048 2.67,1.009l-0.443,1.002c-0.591,-0.56 -1.182,-1.053 -1.773,-0.622l-11.203,9.093l-0.119,-1.345Z" style="fill:#fff;"/><path d="M27.041,80.543l-10.179,-8.555c-0.88,-0.257 -1.175,0.165 -0.97,1.161l10.985,8.725l0.164,-1.331Z" style="fill:#fff;"/></g><g><path d="M79.39,68.209c8.186,0 14.831,6.646 14.831,14.831c-0,8.186 -6.645,14.832 -14.831,14.832c-8.185,-0 -14.831,-6.646 -14.831,-14.832c-0,-8.185 6.646,-14.831 14.831,-14.831Zm-0,1.483c7.367,-0 13.348,5.981 13.348,13.348c0,7.368 -5.981,13.348 -13.348,13.348c-7.368,0 -13.348,-5.98 -13.348,-13.348c-0,-7.367 5.98,-13.348 13.348,-13.348Z" style="fill:#fff;"/><path d="M41.663,68.209c8.186,0 14.831,6.646 14.831,14.831c0,8.186 -6.645,14.832 -14.831,14.832c-8.186,-0 -14.831,-6.646 -14.831,-14.832c0,-8.185 6.645,-14.831 14.831,-14.831Zm0,1.483c7.367,-0 13.349,5.981 13.349,13.348c-0,7.368 -5.982,13.348 -13.349,13.348c-7.367,0 -13.348,-5.98 -13.348,-13.348c0,-7.367 5.981,-13.348 13.348,-13.348Z" style="fill:#fff;"/></g><g><path d="M99.201,48.884c1.044,3.011 3.289,5.032 5.08,6.837c1.077,1.085 1.992,2.071 2.241,3.204c0.065,0.293 0.354,0.479 0.647,0.414c0.293,-0.065 0.479,-0.354 0.413,-0.647c-0.287,-1.309 -1.287,-2.484 -2.53,-3.737c-1.69,-1.702 -3.839,-3.586 -4.824,-6.427c-0.099,-0.284 -0.408,-0.434 -0.692,-0.336c-0.283,0.099 -0.433,0.409 -0.335,0.692Z" style="fill:#fff;"/><path d="M101.814,48.202c0.166,2.676 1.4,4.366 3.583,5.17c0.281,0.104 0.593,-0.04 0.697,-0.321c0.104,-0.282 -0.04,-0.594 -0.322,-0.697c-1.771,-0.653 -2.739,-2.048 -2.874,-4.22c-0.019,-0.299 -0.276,-0.527 -0.576,-0.508c-0.299,0.019 -0.526,0.276 -0.508,0.576Z" style="fill:#fff;"/><path d="M99.546,32.17c1.665,0.544 2.757,1.946 3.518,3.628c1.215,2.687 1.579,6.092 1.834,8.275c0.189,1.621 1.138,2.966 2.022,4.3c0.767,1.157 1.491,2.301 1.352,3.704c-0.029,0.298 0.189,0.563 0.488,0.593c0.298,0.03 0.564,-0.189 0.593,-0.487c0.164,-1.659 -0.62,-3.04 -1.527,-4.41c-0.79,-1.193 -1.679,-2.377 -1.849,-3.827c-0.265,-2.268 -0.66,-5.803 -1.924,-8.596c-0.891,-1.972 -2.216,-3.574 -4.17,-4.213c-0.285,-0.093 -0.592,0.063 -0.685,0.348c-0.093,0.285 0.063,0.592 0.348,0.685Z" style="fill:#fff;"/><path d="M86.183,31.511c0.79,2.64 1.923,4.307 3.22,5.382c1.942,1.61 4.273,1.894 6.488,2.028c1.199,0.073 2.359,0.102 3.385,0.322c0.924,0.198 1.735,0.552 2.33,1.29c0.53,0.655 0.886,1.599 1.042,2.953c0.035,0.298 0.304,0.511 0.602,0.477c0.299,-0.035 0.512,-0.304 0.478,-0.602c-0.2,-1.727 -0.71,-2.882 -1.412,-3.67c-1.055,-1.186 -2.57,-1.566 -4.296,-1.722c-1.366,-0.123 -2.869,-0.114 -4.342,-0.371c-1.386,-0.242 -2.747,-0.727 -3.919,-1.841c-1.022,-0.973 -1.894,-2.415 -2.535,-4.557c-0.086,-0.288 -0.39,-0.451 -0.676,-0.365c-0.288,0.086 -0.451,0.389 -0.365,0.676Z" style="fill:#fff;"/><path d="M76.884,27.726c2.827,1.709 4.227,4.506 4.935,7.837c0.062,0.293 0.351,0.481 0.644,0.418c0.293,-0.062 0.481,-0.351 0.418,-0.644c-0.774,-3.64 -2.344,-6.672 -5.435,-8.54c-0.257,-0.155 -0.59,-0.073 -0.746,0.184c-0.155,0.256 -0.073,0.59 0.184,0.745Z" style="fill:#fff;"/><path d="M95.303,32.998c-0.62,0.328 -1.3,0.121 -2.042,-0.333c-0.897,-0.55 -1.854,-1.47 -2.856,-2.532c-1.886,-2.001 -3.913,-4.499 -5.948,-6.172c-1.459,-1.199 -2.937,-1.973 -4.363,-1.958c-0.299,0.004 -0.54,0.249 -0.538,0.549c0.004,0.299 0.249,0.54 0.549,0.537c1.206,-0.012 2.429,0.697 3.662,1.712c2.002,1.645 3.992,4.108 5.848,6.076c1.304,1.385 2.554,2.526 3.69,3.041c0.894,0.405 1.735,0.448 2.506,0.041c0.265,-0.141 0.367,-0.469 0.227,-0.734c-0.141,-0.265 -0.469,-0.367 -0.735,-0.227Z" style="fill:#fff;"/><path d="M69.422,18.674c4.591,-1.357 7.234,-1.379 9.053,-0.703c1.176,0.437 1.991,1.166 2.777,1.968c2.177,2.222 4.117,4.989 11.386,4.765c0.3,-0.009 0.536,-0.26 0.527,-0.56c-0.01,-0.299 -0.26,-0.535 -0.56,-0.526c-6.756,0.208 -8.554,-2.375 -10.578,-4.44c-0.894,-0.912 -1.834,-1.727 -3.174,-2.225c-1.956,-0.727 -4.802,-0.78 -9.738,0.68c-0.288,0.085 -0.452,0.387 -0.367,0.674c0.085,0.288 0.387,0.452 0.674,0.367Z" style="fill:#fff;"/><path d="M66.73,32.542c0.903,-0.536 1.769,-0.382 2.61,0.066c0.641,0.343 1.268,0.849 1.891,1.393c1.001,0.878 1.987,1.854 2.969,2.504c0.737,0.487 1.479,0.794 2.221,0.808c0.3,0.005 0.548,-0.233 0.554,-0.533c0.005,-0.299 -0.233,-0.547 -0.533,-0.553c-0.552,-0.01 -1.094,-0.266 -1.642,-0.628c-0.946,-0.625 -1.89,-1.57 -2.853,-2.414c-1.83,-1.603 -3.747,-2.778 -5.771,-1.578c-0.258,0.153 -0.344,0.487 -0.191,0.745c0.153,0.258 0.487,0.343 0.745,0.19Z" style="fill:#fff;"/><path d="M55.633,31.172c3.426,5.034 7.374,6.499 11.764,4.784c0.279,-0.109 0.417,-0.424 0.307,-0.704c-0.108,-0.279 -0.424,-0.417 -0.704,-0.308c-3.921,1.533 -7.407,0.117 -10.468,-4.384c-0.169,-0.247 -0.507,-0.312 -0.756,-0.143c-0.247,0.168 -0.311,0.506 -0.143,0.755Z" style="fill:#fff;"/><path d="M66.79,22.904l4.141,4.716c0.198,0.225 0.541,0.247 0.766,0.05c0.226,-0.198 0.248,-0.541 0.051,-0.766l-4.141,-4.716c-0.198,-0.226 -0.541,-0.247 -0.767,-0.05c-0.225,0.198 -0.247,0.541 -0.05,0.766Z" style="fill:#fff;"/><path d="M77.335,10.663c-1.454,-0.479 -2.978,-0.249 -4.532,0.369c-1.457,0.579 -2.946,1.497 -4.432,2.423c-1.431,0.89 -2.858,1.786 -4.255,2.354c-1.297,0.528 -2.562,0.774 -3.769,0.395c-0.286,-0.091 -0.592,0.068 -0.682,0.354c-0.09,0.286 0.069,0.592 0.355,0.681c1.442,0.455 2.957,0.206 4.505,-0.425c1.451,-0.589 2.935,-1.513 4.42,-2.437c1.429,-0.89 2.858,-1.779 4.258,-2.335c1.302,-0.517 2.575,-0.748 3.792,-0.347c0.285,0.094 0.592,-0.061 0.686,-0.346c0.094,-0.285 -0.062,-0.592 -0.346,-0.686Z" style="fill:#fff;"/><path d="M63.798,10.283c-1.176,-0.461 -2.578,-0.582 -4.292,-0.242c-0.294,0.058 -0.58,-0.133 -0.639,-0.427c-0.058,-0.295 0.133,-0.58 0.427,-0.639c2.741,-0.544 4.781,-0.027 6.405,1.104c0.182,0.128 0.269,0.355 0.217,0.573c-0.052,0.217 -0.232,0.38 -0.454,0.411c-3.523,0.49 -4.729,2.022 -6.261,3.244c-1.674,1.337 -3.686,2.392 -8.916,1.653c-0.297,-0.041 -0.504,-0.317 -0.462,-0.613c0.042,-0.297 0.317,-0.504 0.614,-0.463c2.866,0.405 4.678,0.248 5.998,-0.219c1.305,-0.461 2.12,-1.222 3.014,-1.984c1.082,-0.922 2.263,-1.856 4.349,-2.398Z" style="fill:#fff;"/><path d="M64.556,27.477c-0.634,-2.524 -1.722,-4.676 -3.599,-5.994c-1.46,-1.025 -3.394,-1.531 -5.937,-1.338c-0.299,0.023 -0.56,-0.201 -0.583,-0.5c-0.022,-0.299 0.202,-0.56 0.501,-0.582c2.848,-0.218 5.007,0.383 6.642,1.531c2.43,1.705 3.717,4.65 4.342,8.069c0.041,0.222 -0.061,0.446 -0.254,0.562c-0.193,0.117 -0.438,0.102 -0.616,-0.037c-4.107,-3.22 -7.108,-3.401 -9.28,-1.006c-0.201,0.221 -0.545,0.239 -0.767,0.037c-0.222,-0.201 -0.239,-0.545 -0.038,-0.767c2.301,-2.537 5.429,-2.81 9.589,0.025Z" style="fill:#fff;"/><path d="M51.144,21.036c-0.731,0.576 -1.358,0.87 -1.935,0.947c-0.643,0.085 -1.21,-0.107 -1.771,-0.417c-0.65,-0.359 -1.286,-0.868 -1.988,-1.368c-1.092,-0.777 -2.329,-1.526 -3.935,-1.762c-1.595,-0.235 -3.565,0.03 -6.136,1.329c-0.267,0.135 -0.374,0.462 -0.239,0.73c0.135,0.267 0.462,0.374 0.73,0.24c2.211,-1.119 3.92,-1.413 5.319,-1.247c2.115,0.252 3.504,1.534 4.819,2.454c1.032,0.723 2.03,1.236 3.19,1.134c0.772,-0.066 1.628,-0.406 2.618,-1.187c0.236,-0.186 0.276,-0.527 0.091,-0.763c-0.186,-0.235 -0.528,-0.275 -0.763,-0.09Z" style="fill:#fff;"/><path d="M31.545,16.613c3.703,-3.52 7.845,-1.448 10.569,-0.204c0.779,0.355 1.455,0.651 1.991,0.778c0.484,0.116 0.884,0.096 1.186,-0.045c0.272,-0.127 0.39,-0.45 0.264,-0.721c-0.126,-0.272 -0.45,-0.39 -0.721,-0.264c-0.064,0.029 -0.142,0.026 -0.233,0.017c-0.164,-0.016 -0.35,-0.065 -0.558,-0.134c-0.744,-0.248 -1.706,-0.743 -2.809,-1.216c-2.969,-1.276 -6.881,-2.379 -10.438,1.002c-0.217,0.206 -0.226,0.551 -0.019,0.768c0.207,0.217 0.551,0.226 0.768,0.019Z" style="fill:#fff;"/><path d="M29.25,20.841c1.314,3.336 5.065,4.81 7.58,3.934c2.366,-0.823 4.703,0.168 6.308,1.301c1.804,1.273 3.743,2.114 6.019,1.551c0.291,-0.072 0.469,-0.366 0.397,-0.657c-0.072,-0.292 -0.366,-0.469 -0.657,-0.398c-1.947,0.481 -3.59,-0.295 -5.133,-1.384c-1.852,-1.307 -4.561,-2.388 -7.29,-1.438c-2.074,0.721 -5.132,-0.559 -6.215,-3.307c-0.109,-0.279 -0.425,-0.416 -0.704,-0.305c-0.278,0.109 -0.416,0.424 -0.305,0.703Z" style="fill:#fff;"/><path d="M29.328,25.968c1.42,1.802 2.769,3.25 3.952,3.987c0.942,0.587 1.808,0.742 2.551,0.435c0.278,-0.115 0.41,-0.433 0.296,-0.709c-0.115,-0.277 -0.433,-0.409 -0.709,-0.296c-0.461,0.191 -0.981,0.012 -1.563,-0.352c-1.104,-0.689 -2.349,-2.055 -3.674,-3.737c-0.186,-0.236 -0.527,-0.276 -0.763,-0.091c-0.235,0.186 -0.275,0.528 -0.09,0.763Z" style="fill:#fff;"/><path d="M23.163,30.998c1.058,4.223 3.053,5.905 5.688,5.542c0.297,-0.041 0.505,-0.316 0.464,-0.612c-0.041,-0.297 -0.316,-0.505 -0.612,-0.464c-2.163,0.298 -3.618,-1.264 -4.487,-4.73c-0.073,-0.29 -0.367,-0.467 -0.658,-0.394c-0.291,0.073 -0.468,0.367 -0.395,0.658Z" style="fill:#fff;"/><path d="M21.207,39.722c0.046,1.562 -0.49,3.188 -1.211,4.866c-0.755,1.757 -1.717,3.564 -2.495,5.399c-1.633,3.853 -2.449,7.824 0.736,11.741c0.189,0.232 0.532,0.268 0.764,0.079c0.233,-0.19 0.268,-0.532 0.079,-0.764c-2.884,-3.546 -2.057,-7.145 -0.579,-10.631c0.936,-2.209 2.136,-4.376 2.927,-6.464c0.552,-1.459 0.905,-2.883 0.865,-4.257c-0.008,-0.3 -0.26,-0.536 -0.558,-0.528c-0.3,0.009 -0.537,0.26 -0.528,0.559Z" style="fill:#fff;"/><path d="M14.445,49.167c-1.884,3.82 -1.463,6.791 -0.685,9.767c0.731,2.798 1.801,5.597 1.322,9.204c-0.04,0.297 0.17,0.57 0.467,0.61c0.297,0.039 0.57,-0.17 0.61,-0.467c0.5,-3.768 -0.585,-6.699 -1.349,-9.621c-0.717,-2.746 -1.129,-5.488 0.61,-9.011c0.132,-0.27 0.021,-0.596 -0.247,-0.729c-0.27,-0.132 -0.595,-0.021 -0.728,0.247Z" style="fill:#fff;"/></g></g></svg>