<?xml version="1.0" encoding="UTF-8" standalone="no"?><!DOCTYPE svg PUBLIC "-//W3C//DTD SVG 1.1//EN" "http://www.w3.org/Graphics/SVG/1.1/DTD/svg11.dtd"><svg width="100%" height="100%" viewBox="0 0 678 884" version="1.1" xmlns="http://www.w3.org/2000/svg" xmlns:xlink="http://www.w3.org/1999/xlink" xml:space="preserve" xmlns:serif="http://www.serif.com/" style="fill-rule:evenodd;clip-rule:evenodd;stroke-linejoin:round;stroke-miterlimit:2;"><g id="tete"><g><path d="M593.217,440.483c3.5,-4.566 7.911,-7.011 13.45,-6.822c3.322,0.111 6.116,-2.5 6.227,-5.828c0.117,-3.327 -2.494,-6.122 -5.822,-6.233c-9.594,-0.322 -17.361,3.628 -23.433,11.539c-2.028,2.644 -1.522,6.433 1.117,8.461c2.644,2.028 6.433,1.528 8.461,-1.117Z" style="fill:#fffa00;"/><path d="M584.944,466.817c-6.511,-23.328 -1.833,-44.273 7.517,-64.25c1.411,-3.017 5.006,-4.323 8.022,-2.906c3.017,1.411 4.323,5.006 2.906,8.022c-9.033,19.311 -13.345,39.645 -4.572,62.728c0.772,2.011 0.405,4.278 -0.956,5.95c-1.355,1.667 -3.5,2.489 -5.622,2.156c-2.511,-0.395 -4.55,-0.234 -6.156,0.7c-1.627,0.95 -2.727,2.605 -3.622,4.639c-2.655,6.038 -3.217,14.944 -3.105,25.088c0.038,3.334 -2.639,6.067 -5.967,6.106c-3.333,0.039 -6.067,-2.639 -6.106,-5.967c-0.133,-12.189 0.939,-22.827 4.128,-30.083c2.028,-4.617 4.9,-8.056 8.595,-10.206c1.494,-0.872 3.133,-1.544 4.938,-1.977Z" style="fill:#fffa00;"/><path d="M78.217,484.989l13.5,26.744c1.505,2.973 5.139,4.173 8.105,2.667c2.978,-1.5 4.172,-5.133 2.672,-8.106l-13.505,-26.744c-1.5,-2.972 -5.133,-4.172 -8.106,-2.667c-2.972,1.5 -4.172,5.134 -2.666,8.106Z" style="fill:#fffa00;"/><path d="M92.044,444.194c-4.233,-13.594 -10.072,-19.716 -15.711,-21.716c-4.494,-1.595 -9.333,-1.006 -14.333,1.561c-2.967,1.511 -4.139,5.155 -2.617,8.117c1.517,2.966 5.156,4.138 8.117,2.616c1.394,-0.705 2.706,-1.205 4,-1.094c1.294,0.116 2.394,0.978 3.528,2.378c2.033,2.494 3.816,6.333 5.494,11.727c0.989,3.178 4.372,4.961 7.556,3.967c3.178,-0.989 4.961,-4.378 3.966,-7.556Z" style="fill:#fffa00;"/><path d="M84.772,488.189c-1.605,0.317 -3.3,-0.028 -4.672,-1.006c-1.933,-1.377 -2.878,-3.761 -2.417,-6.089c3.995,-20.138 5.078,-43.727 -5.844,-71.655c-1.211,-3.1 0.317,-6.606 3.422,-7.817c3.1,-1.211 6.606,0.317 7.817,3.422c10.439,26.684 10.889,49.745 7.933,69.845c1.695,0.639 2.967,1.817 3.867,3.578c0.478,0.933 0.85,2.211 1.072,3.766c0.183,1.289 0.189,3.1 1.139,4.884c0.444,0.844 0.683,1.777 0.7,2.727c0.133,8.662 3.728,10.517 4.844,12.462c1,1.738 1.634,3.5 1.25,5.727c11.989,16.65 16.645,32.128 16.928,46.817c0.061,3.328 -2.589,6.089 -5.922,6.15c-3.328,0.061 -6.083,-2.589 -6.15,-5.917c-0.25,-13.289 -4.883,-27.244 -16.433,-42.416c-1.189,-1.556 -1.528,-3.573 -0.978,-5.395c-0.539,-0.683 -1.228,-1.605 -1.756,-2.428c-1.711,-2.672 -3.516,-6.611 -3.816,-13.527c-0.406,-1.017 -0.728,-2.106 -0.984,-3.128Z" style="fill:#fffa00;"/><path d="M294.294,32.983c5.995,-4.3 12.256,-9.633 18.923,-16.516l4.061,-1.839c101.678,-4.606 135.572,20.816 163.578,39.244c17.083,11.245 31.727,19.828 60.766,15.522c2.656,-0.394 5.239,1.006 6.367,3.439c1.122,2.434 0.505,5.317 -1.511,7.078c-8.622,7.522 -17.384,13.283 -26.289,16.55c15.833,8.122 27.85,16.8 35.411,25.989c6.844,8.317 10.278,17.111 10.117,26.378c36.183,21.661 48.444,49.844 41.844,83.033c16.433,26.272 20.306,59.85 18.5,86.322c-1.272,18.634 -5.433,33.773 -9.689,40.739c-3.044,5 -6.894,6.784 -9.861,6.722c-0.344,-0.005 -0.694,-0.033 -1.044,-0.083l-1.267,33.406c6.483,0.344 11.7,2.139 15.95,4.794c8.311,5.206 12.989,13.945 15.761,22.895c1.55,5.005 1.922,13.7 1.483,23.438c-0.955,21.023 -5.272,47.245 -5.272,47.245c-0.128,0.778 -0.405,1.528 -0.822,2.194l-16.217,26.234c-2.177,18.033 -6.311,31.094 -11.589,39.233c-4.455,6.856 -9.85,10.606 -15.644,11.717c-6.461,1.244 -13.983,-0.934 -21.861,-7.289c-12.878,85.289 -24.733,87.644 -54.278,123.644c-30.728,37.456 -92.889,74.684 -128.6,89.784c-27.367,11.572 -62.655,14.183 -89.133,0.7c-40.417,-20.6 -126.739,-86.817 -157.45,-124.478c-9.217,-11.311 -15.706,-30.422 -19.945,-49.384c-3.616,-16.127 -5.689,-32.077 -6.777,-42.488c-9.545,6.577 -19.995,9.138 -28.4,6.066c-6.095,-2.233 -11.528,-7.25 -14.956,-16.244c-2.711,-7.117 -4.217,-17.028 -3.689,-30.317c-18.211,-21.955 -29.7,-44.889 -17.489,-70.894c-9.244,-28.017 1.972,-48 14.745,-54.295c2.861,-1.405 5.827,-2.211 8.783,-2.383l-11.744,-40.189c-23.428,-45.133 -14.989,-78.4 -2.278,-104.494c4.494,-9.217 9.589,-17.473 13.861,-25c-2.411,-25.845 0.583,-45.495 6.933,-61.123c7.15,-17.605 18.611,-30.211 31.85,-40.794l-13.489,-8.945c-2.561,-1.7 -3.439,-5.055 -2.033,-7.788c1.406,-2.734 4.644,-3.978 7.517,-2.878c2.277,0.866 3.855,1.816 5.666,1.733c1.673,-0.083 3.334,-1.244 6.073,-3.428c5.455,-4.366 13.288,-12.366 26.211,-26.122c20.511,-21.839 32.989,-23.267 48.111,-24.872c13.278,-1.4 28.878,-2.945 56.278,-22.483c1.072,-0.767 2.361,-1.156 3.666,-1.123l48.872,1.35Zm227.806,49.539c-19.944,-1.055 -33.133,-8.861 -47.878,-18.566c-26.55,-17.473 -58.689,-41.278 -154.033,-37.367c-7.295,7.344 -14.139,12.983 -20.706,17.528c-9.305,7.1 -19.033,11.65 -28.911,15.405c-3.072,1.167 -6.511,-0.339 -7.739,-3.383c-1.233,-3.045 0.2,-6.511 3.217,-7.806c2.822,-1.205 5.656,-2.455 8.517,-3.822l-27.467,-0.755c-29.144,20.4 -46.006,21.972 -60.35,23.494c-12.778,1.344 -23.261,2.672 -40.589,21.122c-13.511,14.395 -21.761,22.717 -27.467,27.284c-1.25,1 -2.411,1.844 -3.511,2.55l2.528,1.672c5.756,-4.017 11.7,-7.817 17.656,-11.611c2.789,-1.778 6.494,-0.973 8.3,1.8c1.805,2.772 1.033,6.489 -1.723,8.316l-20.805,13.823l-0.389,0.233c-14.133,10.267 -26.65,22.367 -33.994,40.433c-4.128,10.161 -6.595,22.167 -6.867,36.722c1.117,-0.438 2.372,-0.561 3.617,-0.266c3.038,0.722 5.033,3.633 4.594,6.728l-4.756,33.383c-0.416,2.939 -2.905,5.133 -5.866,5.189c-2.961,0.05 -5.522,-2.056 -6.045,-4.972l-0.127,-0.695c-13.973,25 -27.973,57.778 -3.278,104.945c0.189,0.35 0.339,0.722 0.45,1.105l14.772,50.533c0.694,2.395 -0.139,4.962 -2.111,6.478c-1.967,1.517 -4.667,1.667 -6.795,0.389c-3.888,-2.339 -8.572,-1.117 -12.327,2.206c-7.556,6.689 -11.361,20.977 -4.556,39.527c0.589,1.595 0.472,3.362 -0.317,4.867c-11.955,22.933 0.106,42.556 16.362,61.728c1,1.178 1.511,2.694 1.422,4.239c-0.689,12.289 0.366,21.366 2.8,27.75c1.878,4.922 4.489,7.989 7.828,9.211c3.377,1.233 7.238,0.589 11.138,-1.067c4.745,-2.005 9.478,-5.561 13.678,-10.033c1.65,-1.761 4.184,-2.367 6.445,-1.55c2.272,0.817 3.827,2.894 3.983,5.3c0,-0 1.622,25.994 7.556,52.472c3.811,16.983 9.272,34.256 17.527,44.389c29.95,36.728 114.156,101.261 153.573,121.35c23.455,11.944 54.711,9.189 78.955,-1.061c34.395,-14.545 94.378,-50.25 123.972,-86.322c29.478,-35.923 40.4,-36.839 53.378,-129.511c0.328,-2.362 2.017,-4.3 4.3,-4.962c2.289,-0.661 4.75,0.084 6.289,1.906c3.994,4.733 7.817,8.172 11.494,10.228c2.75,1.533 5.317,2.25 7.728,1.789c3.984,-0.767 7.067,-4.411 9.856,-10.111c3.622,-7.389 6.261,-17.984 7.822,-31.706c0.1,-0.883 0.394,-1.739 0.867,-2.494l16.283,-26.345c0.822,-5.205 4.128,-26.855 4.933,-44.667c0.367,-8.022 0.323,-15.2 -0.95,-19.316c-1.939,-6.256 -4.833,-12.6 -10.639,-16.239c-3.766,-2.356 -8.733,-3.456 -15.266,-2.85c-1.728,0.155 -3.445,-0.439 -4.706,-1.633c-1.255,-1.195 -1.944,-2.873 -1.878,-4.606l2.295,-60.35c0.122,-3.128 2.611,-5.65 5.733,-5.806c3.134,-0.15 5.856,2.117 6.278,5.223c0.283,2.1 0.772,4.183 1.256,5.922c0.1,-0.211 0.194,-0.417 0.277,-0.617c1.889,-4.533 3.567,-10.905 4.773,-18.466c4.15,-25.889 2.788,-65.478 -16.389,-94.439c-0.911,-1.373 -1.217,-3.056 -0.856,-4.656c6.789,-30.111 -4.922,-55.15 -38.8,-74.311c-2.139,-1.206 -3.333,-3.589 -3.017,-6.028c1.25,-9.644 -3.377,-18.378 -12.294,-26.644c-10.172,-9.445 -25.689,-18.084 -45.478,-26.228c-2.844,-1.178 -4.355,-4.3 -3.5,-7.261c0.85,-2.95 3.795,-4.795 6.828,-4.272c7.894,1.372 15.556,-0.473 23.1,-4.445Z" style="fill:#fffa00;"/></g><path d="M294.306,32.983c5.994,-4.3 12.244,-9.633 18.911,-16.516l4.061,-1.839c101.678,-4.606 135.572,20.816 163.578,39.244c17.083,11.245 31.727,19.828 60.766,15.522c2.656,-0.394 5.239,1.006 6.367,3.439c1.122,2.434 0.505,5.317 -1.511,7.078c-8.622,7.522 -17.384,13.283 -26.289,16.55c15.833,8.122 27.85,16.8 35.411,25.989c6.844,8.317 10.278,17.111 10.117,26.378c36.183,21.661 48.444,49.844 41.844,83.033c16.433,26.272 20.306,59.85 18.5,86.322c-1.272,18.634 -5.433,33.773 -9.689,40.739c-3.044,5 -6.894,6.784 -9.861,6.722c-1.133,-0.022 -2.305,-0.255 -3.461,-0.8l-23.772,145.145c-0.484,2.922 -3.011,5.067 -5.967,5.061c-2.961,-0.006 -5.483,-2.161 -5.95,-5.078c-7.211,-45.061 -12.844,-93.272 -7.45,-163.539c0.539,-7.233 -1.689,-14.35 -4.95,-21.644c-3.65,-8.15 -8.622,-16.461 -13.261,-25.222c-9.039,-17.039 -16.739,-35.656 -13.417,-57.456c-8.227,0.456 -21.233,1.222 -33.077,-0.911c-10.345,-1.856 -19.739,-5.928 -25.623,-13.306c-9.222,5.556 -18.9,9.889 -30.055,10.178c-9.195,0.239 -19.511,-2.222 -31.484,-9.328c-0.416,2.428 -1.605,4.328 -3.283,5.773c-2.194,1.883 -5.861,3.183 -11.244,2.755c-7.517,-0.605 -20,-4.633 -37.306,-12.311c-9.739,5.65 -19.733,7.383 -30.011,3.772c-1.194,-0.422 -2.228,-1.211 -2.956,-2.255c-15.083,-21.75 -30.405,-37.25 -46.322,-44.845c-5.466,12.017 1.345,28.117 16.15,28.445c2.495,0.055 4.695,1.628 5.545,3.972c0.85,2.339 0.172,4.961 -1.7,6.606c-16.123,14.111 -33.706,13.644 -54.889,5.094c-12.972,-5.233 -27.45,-13.617 -43.995,-23c5.4,5.778 11.423,11.039 18.1,15.772c1.789,1.267 2.75,3.406 2.506,5.589c-0.239,2.178 -1.645,4.056 -3.667,4.9c-17.678,7.389 -39.616,4.545 -65.35,-8.717c2.589,13.6 -2.944,26.228 -8.861,39.612c-6.878,15.588 -14.117,32.444 -1.267,54.727c1.134,1.567 2.212,3.3 3.239,5.173c1.545,2.822 0.6,6.366 -2.15,8.05c-2.744,1.672 -6.327,0.9 -8.139,-1.762c-1.111,-1.633 -2.122,-3.244 -3.055,-4.833c-2.25,-2.983 -4.856,-4.972 -8.089,-5.205c0.911,5.316 2.894,10.516 3.983,15.638c1.884,8.917 1.623,17.578 -5.933,26.089c-4.511,5.084 -6.044,11.1 -6.122,17.834c-0.106,7.827 1.678,16.533 3.744,25.961c6.828,31.183 16.556,69.422 -14.183,109.944c-0.156,0.2 -0.317,0.389 -0.495,0.567c-0.183,0.317 -0.4,0.617 -0.644,0.9c-1.906,2.183 -5.1,2.7 -7.594,1.228c-1.878,-1.1 -2.8,-2.428 -3.178,-3.739c-2.989,-5.395 -4.617,-14.211 -5.811,-26.106c-2.706,-26.816 -4.634,-70.928 -27.85,-125.1c-32.056,-61.45 -5.111,-100.761 11.416,-129.928c-5.116,-54.766 13.7,-81.9 38.739,-101.838l-13.439,-8.912c-2.561,-1.7 -3.439,-5.055 -2.033,-7.788c1.406,-2.734 4.644,-3.978 7.517,-2.878c2.277,0.866 3.855,1.816 5.666,1.733c1.673,-0.083 3.334,-1.244 6.073,-3.428c5.455,-4.366 13.288,-12.366 26.211,-26.122c20.511,-21.839 32.989,-23.267 48.111,-24.872c13.278,-1.4 28.878,-2.945 56.278,-22.483c1.072,-0.767 2.361,-1.156 3.666,-1.123l48.884,1.35Zm227.794,49.539c-19.944,-1.055 -33.133,-8.861 -47.878,-18.566c-26.55,-17.473 -58.689,-41.278 -154.033,-37.367c-7.206,7.25 -13.978,12.839 -20.478,17.355c-9.378,7.2 -19.183,11.795 -29.139,15.578c-3.072,1.167 -6.511,-0.339 -7.739,-3.383c-1.233,-3.039 0.2,-6.511 3.217,-7.806c2.822,-1.205 5.656,-2.455 8.517,-3.822l-27.467,-0.755c-29.144,20.4 -46.006,21.972 -60.35,23.494c-12.778,1.344 -23.261,2.672 -40.589,21.122c-13.511,14.395 -21.761,22.717 -27.467,27.284c-1.25,1 -2.411,1.844 -3.511,2.55l2.506,1.661c5.755,-4.011 11.717,-7.806 17.678,-11.6c2.789,-1.778 6.494,-0.973 8.3,1.8c1.805,2.772 1.033,6.489 -1.723,8.316l-20.683,13.739c-22.25,16.106 -40.489,36.689 -41.339,77.461c1.106,-0.433 2.35,-0.544 3.584,-0.255c3.038,0.722 5.033,3.633 4.594,6.728l-4.756,33.383c-0.416,2.939 -2.905,5.133 -5.861,5.189c-2.966,0.05 -5.527,-2.056 -6.05,-4.967l-0.133,-0.744c-14.056,25.083 -27.922,57.9 -3.272,104.989l0.205,0.416c23.95,55.8 26.056,101.228 28.845,128.845c0.505,5.039 0.95,9.416 1.611,13.055c21.028,-33.878 12.25,-65.772 6.494,-92.061c-2.283,-10.411 -4.139,-20.044 -4.027,-28.694c0.122,-9.745 2.644,-18.345 9.166,-25.695c5.6,-6.316 3.978,-12.866 2.178,-19.544c-1.678,-6.234 -3.694,-12.606 -3.761,-19.095c-0.022,-2.561 1.578,-4.861 3.978,-5.727c3.322,-1.206 6.4,-1.723 9.25,-1.617c-4.845,-18.739 1.333,-34.217 7.761,-48.756c6.711,-15.205 14.244,-29.133 1.655,-45.905c-1.755,-2.334 -1.577,-5.595 0.417,-7.734c1.989,-2.138 5.228,-2.544 7.683,-0.955c23.295,15.044 43.261,22.278 59.889,20.294c-11.194,-9.622 -20.422,-20.861 -27.822,-33.594c-1.35,-2.328 -1,-5.272 0.867,-7.211c1.872,-1.945 4.794,-2.417 7.177,-1.15c26.628,14.111 48.339,28.278 66.945,35.783c11.739,4.733 22.078,6.739 31.589,3.467c-13.256,-7.934 -18.6,-25.817 -12.595,-40.428c-4.05,-0.928 -8.139,-1.306 -12.255,-1.117c-3.178,0.145 -5.922,-2.2 -6.278,-5.361c-0.35,-3.161 1.811,-6.055 4.944,-6.611l36.889,-6.522c3.156,-0.556 6.195,1.444 6.928,4.561c0.733,3.122 -1.094,6.261 -4.172,7.172c-2.333,0.689 -4.417,1.595 -6.239,2.672c15.911,8.6 31.494,24.05 46.6,45.478c7.033,1.822 13.806,-0.35 20.472,-4.761c1.734,-1.15 3.928,-1.322 5.822,-0.467c16.278,7.378 28.05,11.628 35.35,12.506c0.667,0.078 1.406,0.094 2.045,0.078c-0.55,-1.506 -1.528,-3.922 -2.822,-6.011c-0.723,-1.173 -1.545,-2.406 -2.467,-3.717c-1.744,-2.489 -1.367,-5.889 0.883,-7.933c2.245,-2.045 5.661,-2.1 7.973,-0.128c16.255,13.867 28.961,18.855 40.011,18.567c9.361,-0.245 17.355,-4.206 25.044,-8.989c-0.194,-0.75 -0.355,-1.523 -0.494,-2.317c-0.339,-1.994 0.333,-4.022 1.8,-5.411c1.472,-1.383 3.533,-1.95 5.5,-1.495l7.916,1.817c2.356,0.545 4.156,2.428 4.589,4.8c0.428,2.372 -0.589,4.778 -2.6,6.106l-1.194,0.8c4.144,4.589 10.7,6.772 17.561,8.005c15.872,2.856 33.883,0.2 38.833,0.55c1.8,0.122 3.445,1.045 4.495,2.511c1.039,1.473 1.377,3.323 0.916,5.067c-7.094,26.517 5.839,47.533 16.439,66.85c8.134,14.828 14.972,28.839 13.928,43.039c-3.789,49.283 -2.05,87.528 1.839,121.478l20.472,-125.017c0.483,-2.95 3.05,-5.1 6.039,-5.061c2.989,0.044 5.494,2.261 5.9,5.228c0.283,2.1 0.772,4.183 1.256,5.922c0.1,-0.211 0.194,-0.417 0.277,-0.617c1.889,-4.533 3.567,-10.905 4.773,-18.466c4.15,-25.889 2.788,-65.478 -16.389,-94.439c-0.911,-1.373 -1.217,-3.056 -0.856,-4.656c6.789,-30.111 -4.922,-55.15 -38.8,-74.311c-2.139,-1.206 -3.333,-3.589 -3.017,-6.028c1.25,-9.644 -3.377,-18.378 -12.294,-26.644c-10.172,-9.445 -25.689,-18.084 -45.478,-26.228c-2.844,-1.178 -4.355,-4.3 -3.5,-7.261c0.85,-2.95 3.795,-4.795 6.828,-4.272c7.894,1.372 15.556,-0.473 23.1,-4.445Z" style="fill:#fffa00;"/><g><g><path d="M369.061,678.378c-22.25,10.178 -43.533,10.3 -63.883,0.444c-3,-1.455 -6.611,-0.2 -8.061,2.8c-1.456,2.995 -0.2,6.606 2.8,8.061c23.622,11.439 48.333,11.478 74.166,-0.327c3.028,-1.389 4.367,-4.967 2.978,-8c-1.383,-3.028 -4.967,-4.367 -8,-2.978Z" style="fill:#fffa00;"/><path d="M402.006,648.717l-2.55,-1.956c-2.134,-1.639 -2.923,-4.489 -1.945,-6.994c0.983,-2.506 3.506,-4.056 6.178,-3.806c-0,0 13.144,1.4 16.767,13.017l0.038,0.128c3.445,11.322 -3.338,19.777 -3.338,19.777c-2.056,2.623 -5.85,3.084 -8.473,1.028c-2.622,-2.055 -3.077,-5.85 -1.027,-8.472c-0,-0 0.605,-0.811 1.1,-2.189c-46.712,14.972 -93.428,15.283 -140.134,1.744l0.528,3.678c0.472,3.245 -1.733,6.267 -4.972,6.811c-3.228,0.539 -6.306,-1.594 -6.928,-4.816c-1,-5.234 -1.867,-10.078 -1.994,-13.984l-0,-0.461c0.177,-9.644 7.166,-14.761 19.011,-15.805l0.022,-0l0.094,-0.006c3.3,-0.289 6.217,2.145 6.523,5.45c0.311,3.295 -2.1,6.228 -5.4,6.567c-1.628,0.161 -3.039,0.405 -4.262,0.755c43.589,12.767 87.173,12.867 130.762,-0.466Z" style="fill:#fffa00;"/></g><g><path d="M159.111,452.433c-0.911,2.084 -0.578,4.495 0.867,6.25c7.594,9.256 19.322,15.206 34.344,18.289c20.728,4.261 48.067,3.139 78.734,-0.85c1.077,-0.144 2.1,-0.572 2.95,-1.244l38.694,-30.478c1.589,-1.25 2.444,-3.206 2.283,-5.217c-1.022,-12.855 -12.511,-21.527 -29.322,-25.989c-26.583,-7.05 -66.428,-4.588 -82.083,-2.855c-5.172,0.572 -8.284,1.439 -8.684,1.661c-19.027,10.394 -25.033,11.383 -37.783,40.433Zm145.189,-15.2c-0.861,-2.222 -2.467,-4.089 -4.567,-5.711c-3.822,-2.95 -9.105,-5.05 -15.166,-6.661c-25.15,-6.672 -62.85,-4.167 -77.667,-2.528c-2.078,0.234 -4.122,0.534 -4.978,0.667c-14.95,8.117 -20.411,9.578 -30.139,30.694c6.011,5.75 14.567,9.323 24.967,11.456c19.311,3.967 44.656,2.839 73.1,-0.789l34.45,-27.128Z" style="fill:#fffa00;"/><path d="M509.656,458.683c1.444,-1.755 1.777,-4.166 0.866,-6.255c-12.755,-29.045 -18.755,-30.034 -37.789,-40.434c-0.4,-0.222 -3.511,-1.083 -8.677,-1.655c-15.662,-1.733 -55.506,-4.195 -82.089,2.855c-16.811,4.462 -28.3,13.134 -29.323,25.989c-0.161,2.011 0.695,3.967 2.284,5.217l38.7,30.478c0.85,0.672 1.872,1.1 2.95,1.244c30.666,3.989 58.005,5.111 78.733,0.85c15.022,-3.083 26.745,-9.033 34.345,-18.289Zm-41.945,-35.683c-0.855,-0.133 -2.9,-0.433 -4.983,-0.661c-14.817,-1.645 -52.517,-4.15 -77.667,2.522c-6.061,1.611 -11.344,3.711 -15.167,6.661c-2.094,1.622 -3.705,3.484 -4.566,5.711l34.455,27.128c28.445,3.628 53.784,4.756 73.1,0.789c10.395,-2.133 18.956,-5.706 24.967,-11.456c-9.733,-21.116 -15.189,-22.577 -30.139,-30.694Z" style="fill:#fffa00;"/></g><g><path d="M432.733,425.167c-10.183,-0 -18.455,8.272 -18.455,18.455c-0,10.189 8.272,18.456 18.455,18.456c10.189,-0 18.461,-8.267 18.461,-18.456c0,-10.183 -8.272,-18.455 -18.461,-18.455Zm0,12.066c3.528,0 6.389,2.867 6.389,6.389c0,3.522 -2.861,6.389 -6.389,6.389c-3.522,0 -6.383,-2.867 -6.383,-6.389c-0,-3.522 2.861,-6.389 6.383,-6.389Z" style="fill:#fffa00;"/><path d="M231.461,425.167c-10.183,-0 -18.455,8.272 -18.455,18.455c-0,10.189 8.272,18.456 18.455,18.456c10.189,-0 18.456,-8.267 18.456,-18.456c-0,-10.183 -8.267,-18.455 -18.456,-18.455Zm0,12.066c3.528,0 6.389,2.867 6.389,6.389c-0,3.522 -2.861,6.389 -6.389,6.389c-3.522,0 -6.389,-2.867 -6.389,-6.389c0,-3.522 2.867,-6.389 6.389,-6.389Z" style="fill:#fffa00;"/></g><path d="M336.939,496.817c-2.195,21.033 8.95,40.355 16.083,55.966c2,4.378 3.645,8.406 4.261,12.056c0.411,2.433 0.373,4.639 -0.9,6.511c-4.739,6.989 -15.416,11.756 -25.361,12.528c-6.033,0.466 -11.905,-0.478 -15.728,-4.089c-4.122,-3.9 -5.233,-10.633 -2.627,-20.761c0.822,-3.234 -1.123,-6.522 -4.345,-7.35c-3.233,-0.828 -6.522,1.122 -7.35,4.344c-4.111,16.011 -0.489,26.367 6.028,32.528c6.111,5.789 15.294,8.111 24.961,7.367c13.617,-1.061 27.917,-8.223 34.406,-17.789c3.011,-4.434 3.789,-9.534 2.816,-15.295c-0.766,-4.544 -2.689,-9.605 -5.183,-15.066c-6.361,-13.917 -17.017,-30.939 -15.061,-49.695c0.35,-3.316 -2.061,-6.289 -5.372,-6.628c-3.317,-0.35 -6.284,2.062 -6.628,5.373Z" style="fill:#fffa00;"/><g><path d="M359.422,366.883c-1.728,0.406 -3.194,1.55 -4,3.134c-4.561,8.933 -3.583,17.883 2.395,26.816c1.05,1.561 2.766,2.556 4.644,2.667c28.411,1.761 46.211,-3.761 63.472,-8.289c24.156,-6.344 47.161,-10.272 100.839,14.211c2.617,1.189 5.7,0.378 7.389,-1.944c1.683,-2.317 1.506,-5.5 -0.428,-7.622c-33.116,-36.195 -88.666,-49.05 -174.311,-28.973Zm125.428,10.723c-29.678,-10.795 -68.978,-11.184 -119.639,0.327c-0.928,3.234 -0.433,6.456 1.178,9.689c24.883,1.061 40.911,-3.994 56.478,-8.083c17.661,-4.639 34.772,-8.278 61.983,-1.933Z" style="fill:#fffa00;"/><path d="M320.006,370.017c-0.806,-1.584 -2.267,-2.728 -3.995,-3.134c-85.639,-20.077 -141.2,-7.222 -174.311,28.973c-1.933,2.122 -2.117,5.305 -0.428,7.622c1.689,2.322 4.772,3.133 7.384,1.944c53.683,-24.483 76.688,-20.555 100.844,-14.211c17.256,4.528 35.056,10.05 63.467,8.289c1.877,-0.111 3.594,-1.1 4.639,-2.661c5.994,-8.939 6.966,-17.889 2.4,-26.822Zm-9.784,7.922c-50.661,-11.517 -89.966,-11.128 -119.639,-0.333c27.206,-6.345 44.323,-2.706 61.984,1.933c15.566,4.089 31.594,9.144 56.477,8.083c1.612,-3.233 2.106,-6.455 1.178,-9.683Z" style="fill:#fffa00;"/></g></g><g><path d="M313.083,450.006c14.711,-12.15 30.211,-14.273 46.778,-2.767l-0.95,7.617c-12.405,-7.967 -25.789,-12.745 -45.172,2.088l-0.656,-6.938Z" style="fill:#fffa00;"/><path d="M522.717,450.283l60.377,-50.761c3.895,-3.366 9.195,0.267 14.834,5.606l-2.461,5.566c-3.284,-3.111 -6.567,-5.85 -9.85,-3.455l-62.239,50.517l-0.661,-7.473Z" style="fill:#fffa00;"/><path d="M150.228,447.461l-56.55,-47.528c-4.889,-1.427 -6.528,0.917 -5.389,6.45l61.028,48.473l0.911,-7.395Z" style="fill:#fffa00;"/></g><g><path d="M441.056,378.939c45.477,-0 82.394,36.922 82.394,82.394c0,45.478 -36.917,82.4 -82.394,82.4c-45.473,0 -82.395,-36.922 -82.395,-82.4c0,-45.472 36.922,-82.394 82.395,-82.394Zm-0,8.239c40.927,-0 74.155,33.228 74.155,74.155c0,40.934 -33.228,74.156 -74.155,74.156c-40.934,-0 -74.156,-33.222 -74.156,-74.156c-0,-40.927 33.222,-74.155 74.156,-74.155Z" style="fill:#fffa00;"/><path d="M231.461,378.939c45.478,-0 82.395,36.922 82.395,82.394c-0,45.478 -36.917,82.4 -82.395,82.4c-45.478,0 -82.394,-36.922 -82.394,-82.4c-0,-45.472 36.916,-82.394 82.394,-82.394Zm0,8.239c40.928,-0 74.161,33.228 74.161,74.155c0,40.934 -33.233,74.156 -74.161,74.156c-40.928,-0 -74.155,-33.222 -74.155,-74.156c-0,-40.927 33.227,-74.155 74.155,-74.155Z" style="fill:#fffa00;"/></g><g><path d="M551.117,271.578c5.8,16.728 18.272,27.955 28.222,37.983c5.983,6.028 11.067,11.506 12.45,17.8c0.361,1.628 1.967,2.661 3.594,2.3c1.628,-0.361 2.661,-1.967 2.295,-3.594c-1.595,-7.273 -7.15,-13.8 -14.056,-20.761c-9.389,-9.456 -21.328,-19.923 -26.8,-35.706c-0.55,-1.578 -2.266,-2.411 -3.844,-1.867c-1.572,0.55 -2.406,2.273 -1.861,3.845Z" style="fill:#fffa00;"/><path d="M565.633,267.789c0.923,14.867 7.778,24.255 19.906,28.722c1.561,0.578 3.294,-0.222 3.872,-1.783c0.578,-1.567 -0.222,-3.3 -1.789,-3.872c-9.839,-3.628 -15.216,-11.378 -15.966,-23.445c-0.106,-1.661 -1.534,-2.928 -3.2,-2.822c-1.662,0.105 -2.923,1.533 -2.823,3.2Z" style="fill:#fffa00;"/><path d="M553.033,178.722c9.25,3.022 15.317,10.811 19.545,20.156c6.75,14.928 8.772,33.844 10.189,45.972c1.05,9.006 6.322,16.478 11.233,23.889c4.261,6.428 8.283,12.783 7.511,20.578c-0.161,1.655 1.05,3.127 2.711,3.294c1.656,0.167 3.134,-1.05 3.295,-2.705c0.911,-9.217 -3.445,-16.889 -8.484,-24.5c-4.389,-6.628 -9.327,-13.206 -10.272,-21.262c-1.472,-12.6 -3.667,-32.238 -10.689,-47.755c-4.95,-10.956 -12.311,-19.856 -23.166,-23.406c-1.584,-0.516 -3.289,0.35 -3.806,1.934c-0.517,1.583 0.35,3.289 1.933,3.805Z" style="fill:#fffa00;"/><path d="M478.794,175.061c4.389,14.667 10.684,23.928 17.889,29.9c10.789,8.945 23.739,10.522 36.045,11.267c6.661,0.405 13.105,0.566 18.805,1.789c5.134,1.1 9.639,3.066 12.945,7.166c2.944,3.639 4.922,8.884 5.789,16.406c0.194,1.655 1.689,2.839 3.344,2.65c1.661,-0.195 2.845,-1.689 2.656,-3.345c-1.111,-9.594 -3.945,-16.011 -7.845,-20.388c-5.861,-6.589 -14.278,-8.7 -23.866,-9.567c-7.589,-0.683 -15.939,-0.633 -24.123,-2.061c-7.7,-1.345 -15.261,-4.039 -21.772,-10.228c-5.678,-5.406 -10.522,-13.417 -14.083,-25.317c-0.478,-1.6 -2.167,-2.505 -3.756,-2.027c-1.6,0.477 -2.505,2.161 -2.028,3.755Z" style="fill:#fffa00;"/><path d="M427.133,154.033c15.706,9.495 23.484,25.034 27.417,43.539c0.344,1.628 1.95,2.672 3.578,2.322c1.628,-0.344 2.672,-1.95 2.322,-3.577c-4.3,-20.223 -13.022,-37.067 -30.194,-47.445c-1.428,-0.861 -3.278,-0.405 -4.145,1.022c-0.861,1.423 -0.405,3.278 1.022,4.139Z" style="fill:#fffa00;"/><path d="M529.461,183.322c-3.444,1.822 -7.222,0.672 -11.344,-1.85c-4.984,-3.055 -10.3,-8.166 -15.867,-14.066c-10.478,-11.117 -21.739,-24.995 -33.044,-34.289c-8.106,-6.661 -16.317,-10.961 -24.239,-10.878c-1.661,0.022 -3,1.383 -2.989,3.05c0.022,1.661 1.383,3 3.05,2.983c6.7,-0.066 13.494,3.872 20.344,9.511c11.122,9.139 22.178,22.823 32.489,33.756c7.245,7.694 14.189,14.033 20.5,16.894c4.967,2.25 9.639,2.489 13.922,0.228c1.473,-0.783 2.039,-2.605 1.261,-4.078c-0.783,-1.472 -2.605,-2.039 -4.083,-1.261Z" style="fill:#fffa00;"/><path d="M385.678,103.744c25.505,-7.538 40.189,-7.661 50.294,-3.905c6.534,2.428 11.061,6.478 15.428,10.933c12.094,12.345 22.872,27.717 63.256,26.472c1.666,-0.05 2.977,-1.444 2.927,-3.111c-0.055,-1.661 -1.444,-2.972 -3.111,-2.922c-37.533,1.156 -47.522,-13.194 -58.766,-24.667c-4.967,-5.066 -10.189,-9.594 -17.634,-12.361c-10.866,-4.039 -26.678,-4.333 -54.1,3.778c-1.6,0.472 -2.511,2.15 -2.039,3.745c0.473,1.6 2.15,2.511 3.745,2.038Z" style="fill:#fffa00;"/><path d="M370.722,180.789c5.017,-2.978 9.828,-2.122 14.5,0.367c3.561,1.905 7.045,4.716 10.506,7.738c5.561,4.878 11.039,10.3 16.494,13.912c4.095,2.705 8.217,4.411 12.339,4.488c1.667,0.028 3.045,-1.294 3.078,-2.961c0.028,-1.661 -1.295,-3.039 -2.961,-3.072c-3.067,-0.055 -6.078,-1.478 -9.122,-3.489c-5.256,-3.472 -10.5,-8.722 -15.85,-13.411c-10.167,-8.905 -20.817,-15.433 -32.062,-8.767c-1.433,0.85 -1.911,2.706 -1.061,4.139c0.85,1.434 2.706,1.906 4.139,1.056Z" style="fill:#fffa00;"/><path d="M309.072,173.178c19.034,27.966 40.967,36.105 65.356,26.578c1.55,-0.606 2.316,-2.356 1.705,-3.912c-0.6,-1.55 -2.355,-2.316 -3.911,-1.711c-21.783,8.517 -41.15,0.65 -58.155,-24.355c-0.939,-1.372 -2.817,-1.734 -4.2,-0.795c-1.373,0.934 -1.728,2.811 -0.795,4.195Z" style="fill:#fffa00;"/><path d="M371.056,127.244l23.005,26.2c1.1,1.25 3.006,1.373 4.256,0.278c1.255,-1.1 1.377,-3.005 0.283,-4.255l-23.006,-26.2c-1.1,-1.256 -3.005,-1.373 -4.261,-0.278c-1.25,1.1 -1.372,3.005 -0.277,4.255Z" style="fill:#fffa00;"/><path d="M429.639,59.239c-8.078,-2.661 -16.545,-1.383 -25.178,2.05c-8.094,3.217 -16.367,8.317 -24.622,13.461c-7.95,4.944 -15.878,9.922 -23.639,13.078c-7.206,2.933 -14.233,4.3 -20.939,2.194c-1.589,-0.505 -3.289,0.378 -3.789,1.967c-0.5,1.589 0.384,3.289 1.972,3.783c8.012,2.528 16.428,1.145 25.028,-2.361c8.061,-3.272 16.306,-8.405 24.556,-13.539c7.939,-4.944 15.878,-9.883 23.655,-12.972c7.234,-2.872 14.306,-4.156 21.067,-1.928c1.583,0.522 3.289,-0.339 3.811,-1.922c0.522,-1.583 -0.344,-3.289 -1.922,-3.811Z" style="fill:#fffa00;"/><path d="M354.433,57.128c-6.533,-2.561 -14.322,-3.234 -23.844,-1.345c-1.633,0.323 -3.222,-0.739 -3.55,-2.372c-0.322,-1.639 0.739,-3.222 2.372,-3.55c15.228,-3.022 26.561,-0.15 35.583,6.133c1.012,0.712 1.495,1.973 1.206,3.184c-0.289,1.205 -1.289,2.111 -2.522,2.283c-19.572,2.722 -26.272,11.233 -34.784,18.022c-9.3,7.428 -20.477,13.289 -49.533,9.184c-1.65,-0.228 -2.8,-1.761 -2.567,-3.406c0.234,-1.65 1.762,-2.8 3.412,-2.572c15.922,2.25 25.988,1.378 33.322,-1.217c7.25,-2.561 11.778,-6.789 16.744,-11.022c6.011,-5.122 12.572,-10.311 24.161,-13.322Z" style="fill:#fffa00;"/><path d="M358.644,152.65c-3.522,-14.022 -9.566,-25.978 -19.994,-33.3c-8.111,-5.694 -18.856,-8.506 -32.983,-7.433c-1.661,0.127 -3.111,-1.117 -3.239,-2.778c-0.122,-1.661 1.122,-3.111 2.783,-3.233c15.822,-1.212 27.817,2.127 36.9,8.505c13.5,9.472 20.65,25.833 24.122,44.828c0.228,1.233 -0.339,2.478 -1.411,3.122c-1.072,0.65 -2.433,0.567 -3.422,-0.205c-22.817,-17.889 -39.489,-18.895 -51.556,-5.589c-1.116,1.227 -3.027,1.327 -4.261,0.205c-1.233,-1.116 -1.327,-3.028 -0.211,-4.261c12.784,-14.094 30.161,-15.611 53.272,0.139Z" style="fill:#fffa00;"/><path d="M284.133,116.867c-4.061,3.2 -7.544,4.833 -10.75,5.261c-3.572,0.472 -6.722,-0.595 -9.839,-2.317c-3.611,-1.994 -7.144,-4.822 -11.044,-7.6c-6.067,-4.317 -12.939,-8.478 -21.861,-9.789c-8.861,-1.305 -19.806,0.167 -34.089,7.384c-1.483,0.75 -2.078,2.566 -1.328,4.055c0.75,1.483 2.567,2.078 4.056,1.333c12.283,-6.216 21.778,-7.85 29.55,-6.927c11.75,1.4 19.466,8.522 26.772,13.633c5.733,4.017 11.278,6.867 17.722,6.3c4.289,-0.367 9.045,-2.256 14.545,-6.594c1.311,-1.034 1.533,-2.928 0.505,-4.239c-1.033,-1.306 -2.933,-1.528 -4.239,-0.5Z" style="fill:#fffa00;"/><path d="M175.25,92.294c20.572,-19.555 43.583,-8.044 58.717,-1.133c4.327,1.972 8.083,3.617 11.061,4.322c2.689,0.645 4.911,0.534 6.589,-0.25c1.511,-0.705 2.166,-2.5 1.466,-4.005c-0.7,-1.511 -2.5,-2.167 -4.005,-1.467c-0.356,0.161 -0.789,0.145 -1.295,0.095c-0.911,-0.089 -1.944,-0.362 -3.1,-0.745c-4.133,-1.378 -9.477,-4.128 -15.605,-6.755c-16.495,-7.089 -38.228,-13.217 -57.989,5.566c-1.206,1.145 -1.256,3.061 -0.106,4.267c1.15,1.205 3.061,1.255 4.267,0.105Z" style="fill:#fffa00;"/><path d="M162.5,115.783c7.3,18.534 28.139,26.723 42.111,21.856c13.145,-4.572 26.128,0.933 35.045,7.228c10.022,7.072 20.794,11.744 33.438,8.616c1.617,-0.4 2.606,-2.033 2.206,-3.65c-0.4,-1.622 -2.033,-2.605 -3.65,-2.211c-10.817,2.672 -19.944,-1.639 -28.517,-7.689c-10.289,-7.261 -25.339,-13.266 -40.5,-7.989c-11.522,4.006 -28.511,-3.105 -34.527,-18.372c-0.606,-1.55 -2.362,-2.311 -3.912,-1.694c-1.544,0.605 -2.311,2.355 -1.694,3.905Z" style="fill:#fffa00;"/><path d="M162.933,144.267c7.889,10.011 15.384,18.055 21.956,22.15c5.233,3.261 10.044,4.122 14.172,2.416c1.545,-0.639 2.278,-2.405 1.645,-3.939c-0.639,-1.538 -2.406,-2.272 -3.939,-1.644c-2.561,1.061 -5.45,0.067 -8.684,-1.956c-6.133,-3.827 -13.05,-11.416 -20.411,-20.761c-1.033,-1.311 -2.928,-1.533 -4.239,-0.505c-1.305,1.033 -1.527,2.933 -0.5,4.239Z" style="fill:#fffa00;"/><path d="M128.683,172.211c5.878,23.461 16.961,32.806 31.6,30.789c1.65,-0.228 2.806,-1.756 2.578,-3.4c-0.228,-1.65 -1.755,-2.806 -3.4,-2.578c-12.017,1.656 -20.1,-7.022 -24.928,-26.278c-0.405,-1.611 -2.039,-2.594 -3.655,-2.188c-1.617,0.405 -2.6,2.038 -2.195,3.655Z" style="fill:#fffa00;"/><path d="M117.817,220.678c0.255,8.678 -2.723,17.711 -6.728,27.033c-4.195,9.761 -9.539,19.8 -13.861,29.995c-9.072,21.405 -13.606,43.466 4.089,65.227c1.05,1.289 2.955,1.489 4.244,0.439c1.295,-1.055 1.489,-2.955 0.439,-4.244c-16.022,-19.7 -11.428,-39.695 -3.217,-59.061c5.2,-12.273 11.867,-24.311 16.261,-35.911c3.067,-8.106 5.028,-16.017 4.806,-23.65c-0.044,-1.667 -1.444,-2.978 -3.1,-2.934c-1.667,0.05 -2.983,1.445 -2.933,3.106Z" style="fill:#fffa00;"/><path d="M80.25,273.15c-10.467,21.222 -8.128,37.728 -3.806,54.261c4.062,15.545 10.006,31.095 7.345,51.133c-0.222,1.65 0.944,3.167 2.594,3.389c1.65,0.217 3.167,-0.944 3.389,-2.594c2.778,-20.933 -3.25,-37.217 -7.494,-53.45c-3.984,-15.256 -6.272,-30.489 3.389,-50.061c0.733,-1.5 0.116,-3.311 -1.373,-4.05c-1.5,-0.734 -3.305,-0.117 -4.044,1.372Z" style="fill:#fffa00;"/></g></g></svg>