<?xml version="1.0" encoding="UTF-8" standalone="no"?><!DOCTYPE svg PUBLIC "-//W3C//DTD SVG 1.1//EN" "http://www.w3.org/Graphics/SVG/1.1/DTD/svg11.dtd"><svg width="100%" height="100%" viewBox="0 0 122 159" version="1.1" xmlns="http://www.w3.org/2000/svg" xmlns:xlink="http://www.w3.org/1999/xlink" xml:space="preserve" xmlns:serif="http://www.serif.com/" style="fill-rule:evenodd;clip-rule:evenodd;stroke-linejoin:round;stroke-miterlimit:2;"><g id="tete"><g><path d="M113.427,87.185c0.725,-0.946 1.638,-1.453 2.785,-1.414c0.689,0.024 1.268,-0.517 1.291,-1.207c0.024,-0.689 -0.517,-1.268 -1.207,-1.291c-1.987,-0.067 -3.596,0.752 -4.853,2.39c-0.42,0.548 -0.316,1.333 0.231,1.753c0.548,0.42 1.333,0.316 1.753,-0.231Z" style="fill:#ffed00;"/><path d="M111.713,92.639c-1.349,-4.832 -0.38,-9.17 1.557,-13.308c0.292,-0.625 1.037,-0.895 1.662,-0.602c0.625,0.292 0.895,1.037 0.602,1.662c-1.872,4 -2.765,8.211 -0.947,12.993c0.159,0.416 0.083,0.886 -0.198,1.232c-0.281,0.346 -0.725,0.516 -1.165,0.447c-0.52,-0.082 -0.942,-0.049 -1.275,0.145c-0.337,0.197 -0.565,0.539 -0.75,0.961c-0.55,1.251 -0.667,3.095 -0.644,5.197c0.008,0.69 -0.546,1.256 -1.236,1.264c-0.69,0.008 -1.256,-0.546 -1.264,-1.236c-0.028,-2.524 0.194,-4.728 0.855,-6.231c0.42,-0.956 1.015,-1.669 1.78,-2.114c0.309,-0.181 0.649,-0.32 1.023,-0.41Z" style="fill:#ffed00;"/><path d="M6.751,96.403l2.797,5.54c0.311,0.616 1.064,0.864 1.679,0.553c0.616,-0.311 0.864,-1.064 0.553,-1.679l-2.797,-5.54c-0.311,-0.616 -1.064,-0.864 -1.679,-0.553c-0.616,0.311 -0.864,1.064 -0.553,1.679Z" style="fill:#ffed00;"/><path d="M9.615,87.953c-0.876,-2.815 -2.086,-4.084 -3.254,-4.498c-0.931,-0.33 -1.933,-0.208 -2.969,0.323c-0.614,0.314 -0.857,1.068 -0.542,1.682c0.314,0.614 1.068,0.857 1.682,0.542c0.288,-0.147 0.56,-0.25 0.828,-0.227c0.268,0.024 0.496,0.203 0.731,0.493c0.421,0.516 0.79,1.311 1.138,2.429c0.205,0.658 0.906,1.027 1.565,0.821c0.658,-0.205 1.027,-0.906 0.821,-1.565Z" style="fill:#ffed00;"/><path d="M8.109,97.066c-0.332,0.066 -0.683,-0.005 -0.968,-0.208c-0.4,-0.286 -0.596,-0.779 -0.5,-1.261c0.827,-4.172 1.052,-9.058 -1.211,-14.843c-0.251,-0.642 0.066,-1.368 0.709,-1.619c0.642,-0.251 1.368,0.066 1.619,0.709c2.163,5.527 2.256,10.304 1.643,14.467c0.352,0.133 0.615,0.377 0.801,0.741c0.099,0.194 0.176,0.458 0.222,0.781c0.039,0.267 0.04,0.642 0.236,1.011c0.092,0.175 0.142,0.368 0.145,0.565c0.028,1.794 0.773,2.178 1.004,2.581c0.207,0.361 0.338,0.725 0.259,1.187c2.483,3.448 3.448,6.654 3.506,9.697c0.013,0.69 -0.536,1.261 -1.226,1.274c-0.69,0.013 -1.261,-0.536 -1.274,-1.226c-0.052,-2.752 -1.012,-5.643 -3.404,-8.785c-0.247,-0.323 -0.317,-0.74 -0.203,-1.118c-0.111,-0.141 -0.254,-0.332 -0.364,-0.503c-0.354,-0.553 -0.728,-1.369 -0.79,-2.802c-0.084,-0.211 -0.151,-0.436 -0.204,-0.648Z" style="fill:#ffed00;"/><path d="M51.509,2.777c1.241,-0.891 2.538,-1.996 3.919,-3.422l0.841,-0.38c21.062,-0.954 28.083,4.311 33.884,8.129c3.538,2.329 6.572,4.107 12.587,3.215c0.549,-0.082 1.085,0.208 1.318,0.712c0.233,0.504 0.105,1.101 -0.313,1.466c-1.786,1.558 -3.601,2.752 -5.445,3.428c3.28,1.683 5.768,3.48 7.335,5.384c1.417,1.722 2.129,3.544 2.095,5.463c7.495,4.487 10.035,10.325 8.668,17.199c3.404,5.442 4.206,12.398 3.832,17.881c-0.264,3.859 -1.126,6.995 -2.007,8.438c-0.631,1.036 -1.428,1.406 -2.043,1.393c-0.071,-0.001 -0.143,-0.007 -0.216,-0.017l-0.263,6.919c1.344,0.071 2.424,0.443 3.304,0.993c1.722,1.078 2.691,2.889 3.265,4.742c0.321,1.037 0.398,2.838 0.307,4.855c-0.198,4.355 -1.092,9.787 -1.092,9.787c-0.026,0.161 -0.084,0.316 -0.17,0.454l-3.359,5.434c-0.451,3.735 -1.307,6.441 -2.401,8.127c-0.922,1.42 -2.04,2.196 -3.24,2.427c-1.339,0.257 -2.896,-0.194 -4.528,-1.51c-2.668,17.666 -5.124,18.154 -11.243,25.611c-6.365,7.758 -19.241,15.47 -26.638,18.597c-5.669,2.397 -12.978,2.938 -18.463,0.145c-8.372,-4.267 -26.252,-17.982 -32.613,-25.784l0,-0c-1.909,-2.342 -3.253,-6.301 -4.132,-10.228c-0.749,-3.341 -1.178,-6.645 -1.403,-8.802c-1.978,1.363 -4.142,1.893 -5.883,1.257c-1.263,-0.463 -2.388,-1.502 -3.098,-3.365c-0.562,-1.474 -0.873,-3.527 -0.764,-6.279c-3.772,-4.548 -6.152,-9.298 -3.623,-14.685c-1.914,-5.804 0.409,-9.943 3.055,-11.247c0.592,-0.291 1.207,-0.458 1.819,-0.493l-2.433,-8.325c-4.853,-9.349 -3.105,-16.239 -0.472,-21.644c0.931,-1.91 1.986,-3.619 2.872,-5.179c-0.5,-5.353 0.12,-9.423 1.436,-12.661c1.481,-3.646 3.855,-6.257 6.597,-8.45l-2.794,-1.852c-0.531,-0.352 -0.712,-1.047 -0.421,-1.613c0.291,-0.567 0.962,-0.824 1.557,-0.597c0.472,0.18 0.798,0.377 1.173,0.359c0.347,-0.017 0.691,-0.257 1.258,-0.71c1.13,-0.904 2.753,-2.561 5.429,-5.411c4.249,-4.523 6.834,-4.819 9.966,-5.151c2.75,-0.29 5.982,-0.61 11.657,-4.658c0.222,-0.158 0.489,-0.239 0.76,-0.232l10.123,0.28Zm47.187,10.261c-4.131,-0.219 -6.863,-1.835 -9.918,-3.846c-5.499,-3.619 -12.156,-8.55 -31.905,-7.74c-1.511,1.521 -2.929,2.689 -4.289,3.631c-1.928,1.47 -3.943,2.413 -5.989,3.191c-0.636,0.241 -1.348,-0.07 -1.603,-0.701c-0.255,-0.631 0.042,-1.349 0.667,-1.617c0.584,-0.25 1.171,-0.509 1.763,-0.791l-5.689,-0.157c-6.037,4.226 -9.529,4.551 -12.501,4.866c-2.646,0.279 -4.818,0.554 -8.407,4.376c-2.799,2.981 -4.507,4.705 -5.689,5.651c-0.259,0.207 -0.5,0.382 -0.727,0.528l0.523,0.347c1.192,-0.832 2.423,-1.62 3.657,-2.405c0.578,-0.369 1.345,-0.202 1.719,0.372c0.374,0.575 0.215,1.344 -0.356,1.723l-4.31,2.863l-0.08,0.049c-2.928,2.126 -5.521,4.632 -7.042,8.375c-0.855,2.104 -1.366,4.591 -1.422,7.606c0.231,-0.091 0.491,-0.116 0.749,-0.055c0.629,0.149 1.042,0.753 0.951,1.393l-0.984,6.916c-0.087,0.608 -0.602,1.063 -1.216,1.074c-0.613,0.011 -1.144,-0.425 -1.252,-1.03l-0.026,-0.144c-2.894,5.179 -5.794,11.968 -0.679,21.738c0.039,0.073 0.07,0.15 0.093,0.229l3.06,10.468c0.144,0.495 -0.029,1.027 -0.437,1.341c-0.408,0.315 -0.967,0.346 -1.408,0.081c-0.805,-0.485 -1.775,-0.231 -2.553,0.457c-1.565,1.385 -2.354,4.345 -0.944,8.187c0.122,0.331 0.098,0.697 -0.065,1.009c-2.477,4.75 0.021,8.814 3.388,12.786c0.208,0.244 0.313,0.558 0.295,0.878c-0.143,2.545 0.076,4.425 0.58,5.747c0.389,1.02 0.93,1.655 1.621,1.908c0.7,0.256 1.5,0.123 2.308,-0.22c0.982,-0.416 1.963,-1.152 2.833,-2.079c0.342,-0.364 0.866,-0.49 1.335,-0.321c0.47,0.169 0.793,0.6 0.825,1.098c-0,0 0.336,5.384 1.565,10.869c0.789,3.518 1.92,7.095 3.631,9.194c6.203,7.608 23.645,20.975 31.81,25.136c4.858,2.475 11.333,1.904 16.354,-0.219c7.125,-3.013 19.549,-10.409 25.68,-17.881c6.105,-7.441 8.368,-7.63 11.056,-26.826c0.068,-0.489 0.418,-0.891 0.891,-1.028c0.474,-0.137 0.984,0.018 1.302,0.395c0.828,0.98 1.62,1.693 2.381,2.118c0.57,0.318 1.102,0.467 1.601,0.371c0.825,-0.159 1.464,-0.914 2.042,-2.094c0.75,-1.531 1.296,-3.725 1.62,-6.568c0.021,-0.183 0.082,-0.36 0.179,-0.516l3.373,-5.457c0.171,-1.079 0.855,-5.563 1.022,-9.253c0.076,-1.661 0.067,-3.148 -0.197,-4.001c-0.401,-1.295 -1.001,-2.61 -2.203,-3.363c-0.781,-0.488 -1.809,-0.716 -3.163,-0.591c-0.358,0.033 -0.713,-0.09 -0.974,-0.338c-0.261,-0.247 -0.403,-0.595 -0.389,-0.954l0.475,-12.501c0.025,-0.648 0.541,-1.17 1.188,-1.202c0.648,-0.031 1.212,0.438 1.3,1.081c0.059,0.436 0.16,0.867 0.26,1.227c0.021,-0.043 0.04,-0.086 0.058,-0.128c0.391,-0.938 0.738,-2.258 0.988,-3.824c0.859,-5.363 0.578,-13.563 -3.395,-19.562c-0.188,-0.284 -0.252,-0.633 -0.177,-0.965c1.406,-6.237 -1.019,-11.423 -8.037,-15.392c-0.443,-0.25 -0.69,-0.744 -0.625,-1.249c0.259,-1.997 -0.699,-3.806 -2.546,-5.519c-2.107,-1.956 -5.322,-3.746 -9.421,-5.433c-0.589,-0.243 -0.902,-0.89 -0.725,-1.503c0.177,-0.612 0.787,-0.994 1.415,-0.885c1.635,0.284 3.222,-0.098 4.785,-0.921Z" style="fill:#ffed00;"/></g><path d="M51.511,2.777c1.242,-0.891 2.536,-1.996 3.917,-3.422l0.841,-0.38c21.062,-0.954 28.083,4.311 33.884,8.129c3.538,2.329 6.572,4.107 12.587,3.215c0.549,-0.082 1.085,0.208 1.318,0.712c0.233,0.504 0.105,1.101 -0.313,1.466c-1.786,1.558 -3.601,2.752 -5.445,3.428c3.28,1.683 5.768,3.48 7.335,5.384c1.417,1.722 2.129,3.544 2.095,5.463c7.495,4.487 10.035,10.325 8.668,17.199c3.404,5.442 4.206,12.398 3.832,17.881c-0.264,3.859 -1.126,6.995 -2.007,8.438c-0.631,1.036 -1.428,1.406 -2.043,1.393c-0.234,-0.005 -0.477,-0.053 -0.717,-0.166l-4.924,30.065c-0.1,0.605 -0.623,1.049 -1.236,1.048c-0.613,-0.001 -1.135,-0.447 -1.232,-1.052c-1.494,-9.333 -2.661,-19.32 -1.543,-33.875c0.111,-1.498 -0.35,-2.972 -1.026,-4.483c-0.756,-1.688 -1.785,-3.41 -2.747,-5.224c-1.872,-3.53 -3.467,-7.386 -2.778,-11.901c-1.705,0.094 -4.399,0.253 -6.852,-0.189c-2.143,-0.385 -4.089,-1.228 -5.308,-2.756c-1.91,1.151 -3.914,2.048 -6.225,2.108c-1.904,0.049 -4.041,-0.46 -6.521,-1.932c-0.087,0.503 -0.333,0.896 -0.681,1.195c-0.454,0.391 -1.213,0.66 -2.329,0.571c-1.557,-0.125 -4.142,-0.959 -7.727,-2.55c-2.017,1.171 -4.087,1.53 -6.216,0.781c-0.248,-0.087 -0.462,-0.25 -0.612,-0.467c-3.125,-4.505 -6.299,-7.715 -9.596,-9.289c-1.132,2.489 0.279,5.825 3.346,5.892c0.516,0.012 0.972,0.338 1.148,0.823c0.176,0.485 0.036,1.028 -0.352,1.368c-3.339,2.923 -6.982,2.827 -11.37,1.056c-2.687,-1.084 -5.685,-2.821 -9.112,-4.765c1.118,1.197 2.366,2.287 3.749,3.267c0.37,0.263 0.569,0.706 0.519,1.158c-0.05,0.451 -0.341,0.84 -0.76,1.015c-3.661,1.531 -8.206,0.941 -13.536,-1.805c0.536,2.817 -0.61,5.432 -1.835,8.204c-1.425,3.229 -2.925,6.721 -0.263,11.336c0.235,0.325 0.458,0.684 0.671,1.072c0.32,0.585 0.124,1.319 -0.445,1.667c-0.569,0.347 -1.311,0.187 -1.686,-0.364c-0.23,-0.339 -0.44,-0.672 -0.633,-1.001c-0.466,-0.619 -1.006,-1.031 -1.676,-1.079c0.189,1.101 0.6,2.179 0.825,3.24c0.391,1.847 0.337,3.64 -1.229,5.404c-0.934,1.052 -1.251,2.299 -1.268,3.694c-0.021,1.621 0.348,3.424 0.776,5.377c1.414,6.459 3.429,14.38 -2.938,22.773c-0.032,0.042 -0.066,0.081 -0.102,0.118c-0.038,0.065 -0.083,0.128 -0.134,0.186c-0.395,0.452 -1.056,0.559 -1.573,0.255c-0.389,-0.228 -0.58,-0.503 -0.658,-0.775c-0.619,-1.117 -0.956,-2.944 -1.204,-5.407c-0.56,-5.555 -0.96,-14.692 -5.768,-25.913c-6.64,-12.729 -1.059,-20.871 2.364,-26.913c-1.059,-11.344 2.838,-16.964 8.025,-21.094l-2.784,-1.846c-0.531,-0.352 -0.712,-1.047 -0.421,-1.613c0.291,-0.567 0.962,-0.824 1.557,-0.597c0.472,0.18 0.798,0.377 1.173,0.359c0.347,-0.017 0.691,-0.257 1.258,-0.71c1.13,-0.904 2.753,-2.561 5.429,-5.411c4.249,-4.523 6.834,-4.819 9.966,-5.151c2.75,-0.29 5.982,-0.61 11.657,-4.658c0.222,-0.158 0.489,-0.239 0.76,-0.232l10.125,0.28Zm47.185,10.261c-4.131,-0.219 -6.863,-1.835 -9.918,-3.846c-5.499,-3.619 -12.156,-8.55 -31.906,-7.74c-1.492,1.502 -2.895,2.66 -4.241,3.595c-1.943,1.491 -3.974,2.443 -6.036,3.227c-0.636,0.241 -1.348,-0.07 -1.603,-0.701c-0.255,-0.63 0.041,-1.349 0.667,-1.617c0.584,-0.25 1.171,-0.509 1.764,-0.791l-5.69,-0.157c-6.037,4.226 -9.529,4.551 -12.501,4.866c-2.646,0.279 -4.818,0.554 -8.407,4.376c-2.799,2.981 -4.507,4.705 -5.689,5.651c-0.259,0.207 -0.5,0.382 -0.727,0.528l0.518,0.344c1.193,-0.831 2.427,-1.616 3.662,-2.402c0.578,-0.369 1.345,-0.202 1.719,0.372c0.374,0.575 0.215,1.344 -0.356,1.723l-4.285,2.846c-4.608,3.336 -8.386,7.599 -8.562,16.045c0.229,-0.09 0.486,-0.113 0.742,-0.053c0.629,0.149 1.042,0.753 0.951,1.393l-0.984,6.916c-0.087,0.608 -0.602,1.063 -1.215,1.074c-0.614,0.011 -1.145,-0.425 -1.253,-1.029l-0.027,-0.154c-2.912,5.196 -5.784,11.993 -0.678,21.747l0.042,0.087c4.961,11.558 5.398,20.967 5.975,26.688c0.105,1.044 0.197,1.95 0.334,2.704c4.356,-7.017 2.537,-13.624 1.345,-19.069c-0.473,-2.157 -0.857,-4.152 -0.834,-5.944c0.025,-2.018 0.548,-3.8 1.898,-5.322c1.161,-1.308 0.824,-2.665 0.452,-4.048c-0.348,-1.291 -0.766,-2.611 -0.779,-3.955c-0.005,-0.531 0.326,-1.007 0.824,-1.187c0.688,-0.249 1.325,-0.356 1.915,-0.335c-1.003,-3.881 0.277,-7.087 1.608,-10.099c1.39,-3.149 2.951,-6.034 0.343,-9.508c-0.363,-0.484 -0.327,-1.159 0.086,-1.602c0.412,-0.443 1.083,-0.527 1.592,-0.198c4.825,3.116 8.961,4.614 12.405,4.203c-2.319,-1.993 -4.23,-4.321 -5.763,-6.958c-0.28,-0.482 -0.207,-1.092 0.18,-1.494c0.387,-0.403 0.993,-0.5 1.486,-0.238c5.516,2.923 10.013,5.857 13.867,7.412c2.431,0.981 4.573,1.396 6.543,0.718c-2.746,-1.643 -3.852,-5.348 -2.609,-8.374c-0.839,-0.192 -1.685,-0.271 -2.538,-0.231c-0.658,0.03 -1.227,-0.456 -1.3,-1.111c-0.073,-0.655 0.375,-1.254 1.024,-1.369l7.641,-1.351c0.653,-0.115 1.283,0.299 1.435,0.945c0.152,0.646 -0.227,1.297 -0.864,1.485c-0.484,0.143 -0.915,0.33 -1.293,0.554c3.296,1.781 6.524,4.981 9.653,9.42c1.456,0.377 2.859,-0.073 4.24,-0.986c0.359,-0.238 0.814,-0.274 1.206,-0.097c3.372,1.528 5.81,2.409 7.323,2.59c0.138,0.017 0.291,0.02 0.423,0.016c-0.114,-0.311 -0.317,-0.812 -0.585,-1.245c-0.149,-0.242 -0.319,-0.498 -0.51,-0.77c-0.362,-0.515 -0.284,-1.219 0.182,-1.643c0.465,-0.423 1.173,-0.435 1.652,-0.026c3.367,2.872 5.999,3.905 8.287,3.845c1.94,-0.05 3.595,-0.871 5.188,-1.861c-0.04,-0.156 -0.073,-0.316 -0.102,-0.48c-0.071,-0.413 0.069,-0.833 0.373,-1.121c0.304,-0.287 0.731,-0.404 1.139,-0.31l1.64,0.377c0.487,0.112 0.86,0.503 0.95,0.994c0.089,0.491 -0.122,0.989 -0.538,1.265l-0.248,0.165c0.859,0.951 2.216,1.403 3.638,1.659c3.287,0.591 7.018,0.041 8.044,0.113c0.372,0.026 0.713,0.217 0.93,0.521c0.216,0.304 0.286,0.688 0.19,1.049c-1.469,5.493 1.21,9.846 3.405,13.847c1.685,3.072 3.102,5.974 2.885,8.915c-0.784,10.209 -0.424,18.13 0.381,25.163l4.241,-25.896c0.1,-0.611 0.632,-1.056 1.251,-1.048c0.619,0.009 1.138,0.468 1.222,1.082c0.059,0.436 0.16,0.867 0.26,1.227c0.021,-0.043 0.04,-0.086 0.058,-0.128c0.391,-0.938 0.738,-2.258 0.988,-3.824c0.859,-5.363 0.578,-13.563 -3.395,-19.562c-0.188,-0.284 -0.252,-0.633 -0.177,-0.965c1.406,-6.237 -1.019,-11.423 -8.037,-15.392c-0.443,-0.25 -0.69,-0.744 -0.625,-1.249c0.259,-1.997 -0.699,-3.806 -2.546,-5.519c-2.107,-1.956 -5.322,-3.746 -9.421,-5.433c-0.589,-0.243 -0.902,-0.89 -0.725,-1.503c0.177,-0.612 0.787,-0.994 1.415,-0.885c1.635,0.284 3.222,-0.098 4.785,-0.921Z" style="fill:#ffed00;"/><g><g><path d="M66.996,136.461c-4.609,2.108 -9.018,2.134 -13.233,0.092c-0.621,-0.301 -1.369,-0.041 -1.67,0.58c-0.301,0.621 -0.041,1.369 0.58,1.67c4.893,2.37 10.012,2.378 15.363,-0.068c0.627,-0.287 0.904,-1.029 0.617,-1.657c-0.287,-0.627 -1.029,-0.904 -1.657,-0.617Z" style="fill:#ffed00;"/><path d="M73.82,130.317l-0.528,-0.405c-0.442,-0.339 -0.606,-0.93 -0.403,-1.448c0.204,-0.519 0.726,-0.84 1.28,-0.789c0,0 2.722,0.29 3.473,2.697l0.008,0.026c0.713,2.345 -0.692,4.097 -0.692,4.097c-0.426,0.543 -1.212,0.638 -1.755,0.213c-0.543,-0.426 -0.638,-1.212 -0.213,-1.755c0,-0 0.126,-0.169 0.228,-0.454c-9.676,3.102 -19.352,3.166 -29.027,0.361l0.11,0.762c0.097,0.672 -0.36,1.298 -1.03,1.411c-0.669,0.112 -1.306,-0.33 -1.435,-0.997c-0.208,-1.085 -0.387,-2.088 -0.413,-2.897l-0,-0.006l-0,-0.015l-0.001,-0.009l0,-0.011l0,-0.012l-0,-0.016l0.001,-0.027c0.036,-1.997 1.484,-3.057 3.937,-3.273l0.005,-0.001l-0,0l0.019,-0.001c0.684,-0.059 1.288,0.445 1.352,1.129c0.064,0.683 -0.436,1.29 -1.119,1.36c-0.337,0.034 -0.63,0.085 -0.883,0.157c9.029,2.645 18.057,2.665 27.086,-0.097Z" style="fill:#ffed00;"/></g><g><path d="M23.508,89.66c-0.189,0.431 -0.12,0.931 0.179,1.295c1.573,1.917 4.002,3.149 7.114,3.788c4.294,0.883 9.956,0.65 16.308,-0.176c0.224,-0.03 0.435,-0.119 0.612,-0.258l8.015,-6.313c0.329,-0.259 0.506,-0.664 0.473,-1.081c-0.212,-2.663 -2.592,-4.459 -6.074,-5.383c-5.506,-1.46 -13.76,-0.95 -17.003,-0.591c-1.071,0.118 -1.715,0.298 -1.798,0.344c-3.942,2.153 -5.185,2.358 -7.826,8.375Zm30.073,-3.148c-0.178,-0.461 -0.511,-0.848 -0.945,-1.183c-0.792,-0.611 -1.887,-1.047 -3.142,-1.38c-5.209,-1.382 -13.019,-0.863 -16.088,-0.524c-0.43,0.048 -0.854,0.111 -1.031,0.138c-3.097,1.681 -4.228,1.984 -6.243,6.358c1.246,1.191 3.018,1.931 5.172,2.373c4,0.822 9.25,0.588 15.142,-0.163l7.135,-5.619Z" style="fill:#ffed00;"/><path d="M96.118,90.955c0.299,-0.364 0.368,-0.864 0.179,-1.296c-2.642,-6.016 -3.884,-6.221 -7.827,-8.375c-0.083,-0.046 -0.727,-0.225 -1.797,-0.343c-3.244,-0.359 -11.498,-0.869 -17.004,0.591c-3.482,0.924 -5.862,2.72 -6.074,5.383c-0.033,0.417 0.144,0.822 0.473,1.081l8.016,6.313c0.177,0.139 0.388,0.228 0.612,0.258c6.352,0.826 12.014,1.059 16.308,0.176c3.112,-0.639 5.54,-1.871 7.114,-3.788Zm-8.688,-7.392c-0.177,-0.027 -0.601,-0.09 -1.032,-0.137c-3.069,-0.34 -10.879,-0.859 -16.088,0.523c-1.255,0.333 -2.35,0.769 -3.142,1.38c-0.434,0.335 -0.767,0.721 -0.945,1.182l7.136,5.62c5.892,0.751 11.141,0.985 15.142,0.163c2.153,-0.442 3.926,-1.182 5.172,-2.373c-2.016,-4.374 -3.146,-4.677 -6.243,-6.358Z" style="fill:#ffed00;"/></g><g><path d="M80.185,84.012c-2.11,0 -3.823,1.713 -3.823,3.823c0,2.11 1.713,3.823 3.823,3.823c2.11,0 3.823,-1.713 3.823,-3.823c0,-2.11 -1.713,-3.823 -3.823,-3.823Zm0,2.5c0.73,0 1.323,0.593 1.323,1.323c0,0.73 -0.593,1.323 -1.323,1.323c-0.73,0 -1.323,-0.593 -1.323,-1.323c0,-0.73 0.593,-1.323 1.323,-1.323Z" style="fill:#ffed00;"/><path d="M38.494,84.012c-2.11,0 -3.823,1.713 -3.823,3.823c0,2.11 1.713,3.823 3.823,3.823c2.11,0 3.823,-1.713 3.823,-3.823c0,-2.11 -1.713,-3.823 -3.823,-3.823Zm0,2.5c0.73,0 1.323,0.593 1.323,1.323c0,0.73 -0.593,1.323 -1.323,1.323c-0.73,0 -1.323,-0.593 -1.323,-1.323c0,-0.73 0.593,-1.323 1.323,-1.323Z" style="fill:#ffed00;"/></g><path d="M60.342,98.853c-0.454,4.357 1.854,8.36 3.331,11.593c0.415,0.907 0.755,1.741 0.883,2.497c0.085,0.504 0.077,0.961 -0.186,1.349c-0.982,1.447 -3.194,2.435 -5.253,2.595c-1.25,0.097 -2.467,-0.099 -3.258,-0.847c-0.854,-0.808 -1.084,-2.203 -0.545,-4.301c0.171,-0.669 -0.232,-1.35 -0.9,-1.522c-0.669,-0.171 -1.35,0.232 -1.522,0.9c-0.851,3.317 -0.101,5.461 1.249,6.738c1.265,1.199 3.168,1.68 5.17,1.525c2.82,-0.219 5.783,-1.703 7.127,-3.684c0.623,-0.918 0.784,-1.975 0.583,-3.168c-0.159,-0.942 -0.557,-1.99 -1.074,-3.121c-1.317,-2.883 -3.524,-6.409 -3.119,-10.294c0.072,-0.687 -0.427,-1.302 -1.113,-1.373c-0.687,-0.072 -1.302,0.427 -1.373,1.113Z" style="fill:#ffed00;"/><g><path d="M64.999,71.939c-0.358,0.084 -0.661,0.321 -0.828,0.649c-0.945,1.851 -0.743,3.705 0.496,5.555c0.217,0.324 0.573,0.529 0.962,0.553c5.885,0.364 9.572,-0.779 13.147,-1.717c5.003,-1.314 9.769,-2.128 20.888,2.943c0.541,0.247 1.18,0.079 1.53,-0.402c0.349,-0.48 0.312,-1.14 -0.089,-1.579c-6.859,-7.498 -18.366,-10.16 -36.106,-6.002Zm25.981,2.221c-6.147,-2.236 -14.288,-2.316 -24.782,0.068c-0.192,0.67 -0.09,1.337 0.244,2.007c5.154,0.22 8.474,-0.827 11.699,-1.674c3.658,-0.961 7.203,-1.715 12.839,-0.401Z" style="fill:#ffed00;"/><path d="M56.835,72.588c-0.167,-0.328 -0.47,-0.565 -0.828,-0.649c-17.739,-4.158 -29.247,-1.496 -36.106,6.002c-0.401,0.439 -0.438,1.099 -0.089,1.579c0.35,0.481 0.989,0.649 1.53,0.402c11.119,-5.071 15.885,-4.257 20.888,-2.943c3.575,0.938 7.262,2.081 13.147,1.717c0.389,-0.024 0.744,-0.228 0.961,-0.552c1.241,-1.851 1.442,-3.705 0.497,-5.556Zm-2.027,1.641c-10.494,-2.385 -18.635,-2.305 -24.782,-0.069c5.636,-1.314 9.181,-0.56 12.839,0.401c3.225,0.847 6.545,1.894 11.699,1.674c0.334,-0.67 0.436,-1.337 0.244,-2.006Z" style="fill:#ffed00;"/></g></g><g><path d="M55.401,89.157c3.047,-2.517 6.258,-2.956 9.689,-0.573l-0.197,1.578c-2.569,-1.651 -5.341,-2.64 -9.356,0.432l-0.136,-1.437Z" style="fill:#ffed00;"/><path d="M98.823,89.215l12.507,-10.515c0.807,-0.697 1.904,0.055 3.072,1.161l-0.51,1.153c-0.68,-0.644 -1.36,-1.211 -2.04,-0.715l-12.892,10.463l-0.137,-1.547Z" style="fill:#ffed00;"/><path d="M21.668,88.63l-11.714,-9.845c-1.013,-0.295 -1.352,0.19 -1.116,1.336l12.641,10.041l0.189,-1.532Z" style="fill:#ffed00;"/></g><g><path d="M81.908,74.437c9.42,0 17.067,7.647 17.067,17.067c0,9.42 -7.647,17.067 -17.067,17.067c-9.419,0 -17.067,-7.647 -17.067,-17.067c0,-9.42 7.648,-17.067 17.067,-17.067Zm0,1.706c8.478,0 15.361,6.883 15.361,15.361c0,8.478 -6.883,15.36 -15.361,15.36c-8.478,0 -15.36,-6.882 -15.36,-15.36c0,-8.478 6.882,-15.361 15.36,-15.361Z" style="fill:#ffed00;"/><path d="M38.494,74.437c9.42,0 17.067,7.647 17.067,17.067c0,9.42 -7.647,17.067 -17.067,17.067c-9.42,0 -17.067,-7.647 -17.067,-17.067c0,-9.42 7.647,-17.067 17.067,-17.067Zm0,1.706c8.478,0 15.361,6.883 15.361,15.361c0,8.478 -6.883,15.36 -15.361,15.36c-8.478,0 -15.36,-6.882 -15.36,-15.36c0,-8.478 6.882,-15.361 15.36,-15.361Z" style="fill:#ffed00;"/></g><g><path d="M104.706,52.198c1.202,3.465 3.785,5.791 5.846,7.868c1.239,1.249 2.292,2.383 2.579,3.687c0.074,0.337 0.407,0.551 0.744,0.476c0.337,-0.074 0.551,-0.407 0.476,-0.744c-0.331,-1.506 -1.482,-2.859 -2.912,-4.3c-1.945,-1.959 -4.418,-4.127 -5.551,-7.397c-0.114,-0.326 -0.47,-0.499 -0.796,-0.386c-0.326,0.114 -0.499,0.47 -0.386,0.796Z" style="fill:#ffed00;"/><path d="M107.713,51.413c0.191,3.08 1.611,5.025 4.123,5.95c0.324,0.12 0.683,-0.046 0.802,-0.37c0.12,-0.324 -0.046,-0.683 -0.37,-0.802c-2.038,-0.751 -3.152,-2.356 -3.307,-4.856c-0.022,-0.344 -0.318,-0.606 -0.663,-0.585c-0.344,0.022 -0.606,0.318 -0.585,0.663Z" style="fill:#ffed00;"/><path d="M105.103,32.964c1.916,0.627 3.173,2.24 4.048,4.175c1.399,3.092 1.818,7.011 2.111,9.523c0.218,1.865 1.31,3.413 2.327,4.948c0.882,1.332 1.715,2.648 1.556,4.262c-0.034,0.343 0.217,0.649 0.561,0.683c0.343,0.034 0.649,-0.217 0.683,-0.561c0.188,-1.909 -0.714,-3.498 -1.758,-5.074c-0.909,-1.373 -1.932,-2.736 -2.127,-4.404c-0.305,-2.61 -0.76,-6.678 -2.214,-9.892c-1.026,-2.269 -2.551,-4.113 -4.799,-4.848c-0.328,-0.107 -0.681,0.072 -0.788,0.4c-0.107,0.328 0.072,0.681 0.4,0.788Z" style="fill:#ffed00;"/><path d="M89.725,32.206c0.91,3.038 2.214,4.956 3.706,6.193c2.235,1.853 4.917,2.18 7.466,2.334c1.38,0.084 2.715,0.118 3.895,0.371c1.064,0.228 1.997,0.635 2.682,1.484c0.609,0.754 1.019,1.84 1.199,3.398c0.04,0.343 0.35,0.589 0.693,0.549c0.343,-0.04 0.589,-0.35 0.549,-0.693c-0.23,-1.987 -0.817,-3.316 -1.624,-4.223c-1.214,-1.365 -2.958,-1.802 -4.944,-1.981c-1.572,-0.142 -3.302,-0.131 -4.996,-0.427c-1.596,-0.279 -3.162,-0.837 -4.51,-2.119c-1.176,-1.119 -2.18,-2.779 -2.918,-5.244c-0.099,-0.331 -0.448,-0.519 -0.778,-0.42c-0.331,0.099 -0.519,0.448 -0.42,0.778Z" style="fill:#ffed00;"/><path d="M79.025,27.851c3.253,1.966 4.864,5.185 5.679,9.018c0.071,0.337 0.404,0.553 0.741,0.481c0.337,-0.071 0.553,-0.404 0.481,-0.741c-0.891,-4.189 -2.698,-7.678 -6.255,-9.828c-0.295,-0.178 -0.679,-0.084 -0.858,0.212c-0.178,0.295 -0.084,0.679 0.212,0.858Z" style="fill:#ffed00;"/><path d="M100.221,33.917c-0.714,0.378 -1.497,0.139 -2.35,-0.383c-1.033,-0.633 -2.134,-1.691 -3.287,-2.914c-2.17,-2.302 -4.503,-5.177 -6.845,-7.102c-1.679,-1.38 -3.379,-2.27 -5.02,-2.253c-0.345,0.004 -0.622,0.286 -0.619,0.631c0.004,0.345 0.286,0.622 0.631,0.619c1.388,-0.014 2.795,0.802 4.214,1.969c2.304,1.894 4.594,4.728 6.73,6.993c1.501,1.593 2.939,2.906 4.246,3.499c1.029,0.466 1.997,0.516 2.884,0.047c0.305,-0.162 0.422,-0.54 0.261,-0.845c-0.162,-0.305 -0.54,-0.422 -0.845,-0.261Z" style="fill:#ffed00;"/><path d="M70.438,17.434c5.283,-1.562 8.324,-1.587 10.417,-0.809c1.354,0.503 2.292,1.342 3.196,2.264c2.505,2.557 4.738,5.742 13.103,5.484c0.345,-0.011 0.616,-0.299 0.606,-0.644c-0.011,-0.345 -0.299,-0.616 -0.644,-0.606c-7.775,0.24 -9.844,-2.733 -12.173,-5.109c-1.029,-1.05 -2.11,-1.988 -3.653,-2.561c-2.25,-0.836 -5.526,-0.897 -11.206,0.783c-0.331,0.098 -0.52,0.445 -0.422,0.776c0.098,0.331 0.445,0.52 0.776,0.422Z" style="fill:#ffed00;"/><path d="M67.34,33.393c1.039,-0.617 2.035,-0.44 3.003,0.076c0.738,0.394 1.46,0.976 2.176,1.603c1.152,1.01 2.287,2.133 3.417,2.881c0.848,0.56 1.702,0.914 2.556,0.93c0.345,0.006 0.63,-0.268 0.637,-0.613c0.006,-0.345 -0.268,-0.63 -0.613,-0.637c-0.635,-0.012 -1.259,-0.306 -1.89,-0.723c-1.088,-0.719 -2.175,-1.806 -3.283,-2.778c-2.105,-1.844 -4.311,-3.196 -6.641,-1.815c-0.297,0.176 -0.395,0.56 -0.219,0.857c0.176,0.297 0.56,0.395 0.857,0.219Z" style="fill:#ffed00;"/><path d="M54.57,31.816c3.942,5.793 8.486,7.479 13.537,5.505c0.321,-0.125 0.48,-0.488 0.354,-0.81c-0.125,-0.321 -0.488,-0.48 -0.81,-0.354c-4.513,1.764 -8.524,0.134 -12.047,-5.045c-0.194,-0.285 -0.583,-0.359 -0.869,-0.165c-0.285,0.194 -0.359,0.583 -0.165,0.869Z" style="fill:#ffed00;"/><path d="M67.409,22.302l4.765,5.426c0.228,0.26 0.623,0.285 0.882,0.058c0.26,-0.228 0.285,-0.623 0.058,-0.882l-4.765,-5.426c-0.228,-0.26 -0.623,-0.285 -0.882,-0.058c-0.26,0.228 -0.285,0.623 -0.058,0.882Z" style="fill:#ffed00;"/><path d="M79.544,8.215c-1.674,-0.551 -3.427,-0.286 -5.216,0.425c-1.676,0.666 -3.39,1.723 -5.1,2.788c-1.646,1.024 -3.289,2.055 -4.896,2.709c-1.493,0.607 -2.948,0.891 -4.338,0.454c-0.329,-0.104 -0.681,0.079 -0.784,0.408c-0.104,0.329 0.079,0.681 0.408,0.784c1.66,0.523 3.403,0.237 5.185,-0.489c1.669,-0.678 3.377,-1.742 5.086,-2.805c1.644,-1.024 3.289,-2.047 4.9,-2.687c1.498,-0.595 2.963,-0.861 4.363,-0.399c0.328,0.108 0.682,-0.071 0.79,-0.398c0.108,-0.328 -0.071,-0.682 -0.398,-0.79Z" style="fill:#ffed00;"/><path d="M63.966,7.778c-1.354,-0.531 -2.967,-0.67 -4.939,-0.279c-0.339,0.067 -0.668,-0.153 -0.735,-0.491c-0.067,-0.339 0.153,-0.668 0.491,-0.735c3.154,-0.626 5.502,-0.032 7.37,1.27c0.21,0.147 0.31,0.409 0.25,0.659c-0.06,0.25 -0.267,0.438 -0.522,0.473c-4.054,0.564 -5.442,2.327 -7.205,3.734c-1.926,1.538 -4.242,2.752 -10.26,1.902c-0.342,-0.048 -0.58,-0.365 -0.532,-0.706c0.048,-0.342 0.365,-0.58 0.706,-0.532c3.299,0.466 5.384,0.285 6.903,-0.252c1.502,-0.531 2.439,-1.407 3.468,-2.284c1.245,-1.061 2.604,-2.135 5.005,-2.759Z" style="fill:#ffed00;"/><path d="M64.838,27.564c-0.729,-2.904 -1.981,-5.381 -4.142,-6.898c-1.68,-1.179 -3.905,-1.761 -6.832,-1.539c-0.344,0.026 -0.644,-0.232 -0.67,-0.576c-0.026,-0.344 0.232,-0.644 0.576,-0.67c3.278,-0.25 5.762,0.441 7.644,1.762c2.796,1.962 4.277,5.351 4.996,9.286c0.047,0.255 -0.07,0.513 -0.292,0.647c-0.222,0.134 -0.504,0.117 -0.709,-0.043c-4.726,-3.705 -8.18,-3.914 -10.679,-1.158c-0.232,0.255 -0.627,0.275 -0.883,0.043c-0.255,-0.232 -0.275,-0.627 -0.043,-0.883c2.647,-2.919 6.247,-3.234 11.034,0.029Z" style="fill:#ffed00;"/><path d="M49.404,20.152c-0.841,0.663 -1.563,1.001 -2.227,1.09c-0.74,0.098 -1.392,-0.124 -2.038,-0.48c-0.747,-0.413 -1.48,-0.999 -2.287,-1.574c-1.257,-0.894 -2.68,-1.756 -4.529,-2.028c-1.835,-0.271 -4.102,0.034 -7.06,1.529c-0.308,0.156 -0.431,0.532 -0.276,0.84c0.156,0.308 0.532,0.431 0.84,0.276c2.545,-1.287 4.512,-1.625 6.121,-1.434c2.434,0.289 4.033,1.765 5.546,2.824c1.187,0.831 2.336,1.422 3.671,1.305c0.888,-0.077 1.873,-0.468 3.013,-1.366c0.271,-0.214 0.317,-0.607 0.104,-0.878c-0.214,-0.271 -0.607,-0.317 -0.878,-0.104Z" style="fill:#ffed00;"/><path d="M26.851,15.062c4.261,-4.05 9.027,-1.666 12.162,-0.235c0.896,0.409 1.674,0.749 2.291,0.896c0.557,0.133 1.017,0.11 1.365,-0.052c0.313,-0.146 0.449,-0.518 0.304,-0.83c-0.146,-0.313 -0.518,-0.449 -0.83,-0.304c-0.074,0.034 -0.164,0.03 -0.268,0.02c-0.189,-0.018 -0.403,-0.075 -0.642,-0.154c-0.856,-0.286 -1.963,-0.855 -3.233,-1.4c-3.416,-1.468 -7.918,-2.737 -12.011,1.153c-0.25,0.238 -0.26,0.634 -0.022,0.884c0.238,0.25 0.634,0.26 0.884,0.022Z" style="fill:#ffed00;"/><path d="M24.209,19.928c1.512,3.838 5.829,5.535 8.723,4.527c2.723,-0.947 5.412,0.193 7.259,1.497c2.076,1.465 4.307,2.432 6.927,1.785c0.335,-0.083 0.539,-0.422 0.457,-0.757c-0.083,-0.335 -0.422,-0.539 -0.757,-0.457c-2.24,0.553 -4.131,-0.34 -5.907,-1.593c-2.131,-1.504 -5.248,-2.748 -8.389,-1.655c-2.386,0.83 -5.905,-0.643 -7.151,-3.805c-0.126,-0.321 -0.489,-0.479 -0.81,-0.352c-0.321,0.126 -0.479,0.489 -0.352,0.81Z" style="fill:#ffed00;"/><path d="M24.299,25.828c1.634,2.073 3.187,3.739 4.548,4.587c1.084,0.676 2.081,0.854 2.936,0.501c0.319,-0.132 0.471,-0.498 0.34,-0.816c-0.132,-0.319 -0.498,-0.471 -0.816,-0.34c-0.53,0.219 -1.128,0.013 -1.798,-0.405c-1.271,-0.793 -2.703,-2.365 -4.228,-4.301c-0.214,-0.271 -0.607,-0.317 -0.878,-0.104c-0.271,0.214 -0.317,0.607 -0.104,0.878Z" style="fill:#ffed00;"/><path d="M17.205,31.616c1.217,4.859 3.513,6.795 6.545,6.377c0.342,-0.047 0.581,-0.363 0.534,-0.704c-0.047,-0.342 -0.363,-0.581 -0.704,-0.534c-2.489,0.343 -4.164,-1.454 -5.163,-5.443c-0.084,-0.334 -0.423,-0.538 -0.758,-0.454c-0.334,0.084 -0.538,0.423 -0.454,0.758Z" style="fill:#ffed00;"/><path d="M14.954,41.655c0.053,1.797 -0.564,3.669 -1.394,5.6c-0.869,2.021 -1.976,4.101 -2.871,6.213c-1.879,4.433 -2.818,9.003 0.847,13.51c0.218,0.268 0.612,0.309 0.879,0.091c0.268,-0.218 0.309,-0.612 0.091,-0.879c-3.318,-4.08 -2.367,-8.222 -0.666,-12.234c1.077,-2.542 2.458,-5.035 3.368,-7.438c0.635,-1.679 1.042,-3.318 0.996,-4.899c-0.01,-0.345 -0.299,-0.617 -0.643,-0.607c-0.345,0.01 -0.617,0.299 -0.607,0.643Z" style="fill:#ffed00;"/><path d="M7.172,52.524c-2.168,4.396 -1.683,7.815 -0.788,11.239c0.841,3.22 2.073,6.441 1.521,10.592c-0.045,0.342 0.196,0.656 0.538,0.702c0.342,0.045 0.656,-0.196 0.702,-0.538c0.575,-4.336 -0.673,-7.708 -1.552,-11.071c-0.825,-3.16 -1.3,-6.315 0.701,-10.37c0.152,-0.31 0.025,-0.685 -0.284,-0.838c-0.31,-0.152 -0.685,-0.025 -0.838,0.284Z" style="fill:#ffed00;"/></g></g></svg>