<?xml version="1.0" encoding="UTF-8" standalone="no"?><!DOCTYPE svg PUBLIC "-//W3C//DTD SVG 1.1//EN" "http://www.w3.org/Graphics/SVG/1.1/DTD/svg11.dtd"><svg width="100%" height="100%" viewBox="0 0 122 159" version="1.1" xmlns="http://www.w3.org/2000/svg" xmlns:xlink="http://www.w3.org/1999/xlink" xml:space="preserve" xmlns:serif="http://www.serif.com/" style="fill-rule:evenodd;clip-rule:evenodd;stroke-linecap:round;stroke-linejoin:round;stroke-miterlimit:1.5;"><g id="tete"><g><path d="M112.435,86.424c0.991,-1.292 2.252,-1.955 3.819,-1.902" style="fill:none;stroke:#fff;stroke-width:2.5px;"/><path d="M109.305,101.38c-0.051,-4.626 0.678,-8.095 4.114,-7.552c-1.954,-5.139 -1.029,-9.668 0.983,-13.967" style="fill:none;stroke:#fff;stroke-width:2.5px;"/><path d="M7.867,95.84l2.797,5.54" style="fill:none;stroke:#fff;stroke-width:2.5px;"/><path d="M8.422,88.325c-1.17,-3.758 -2.727,-4.323 -4.46,-3.435" style="fill:none;stroke:#fff;stroke-width:2.5px;"/><path d="M6.594,80.299c2.37,6.057 2.139,11.173 1.273,15.541c1.829,-1.065 0.985,0.261 1.688,1.589c0.049,3.136 1.767,2.798 1.109,3.951c2.59,3.401 3.603,6.539 3.66,9.518" style="fill:none;stroke:#fff;stroke-width:2.5px;"/><path d="M19.799,131.673c-4.524,-5.551 -5.475,-20.775 -5.475,-20.775c-3.993,4.256 -10.126,4.818 -9.502,-6.281c-3.719,-4.386 -6.279,-8.926 -3.543,-14.172c-2.749,-7.492 2.159,-12.048 5.315,-10.146l-3.06,-10.468c-7.784,-14.869 1.986,-23.19 4.026,-29.31l-0.984,6.916c-3.214,-17.946 4.732,-22.949 12.684,-28.012l-4.31,2.863l-4.252,-2.82c2.227,0.848 2.372,1.214 9.216,-6.074c7.838,-8.345 9.513,-1.142 21.438,-9.647l10.541,0.291c-1.847,1.422 -3.781,2.322 -5.742,3.067c3.145,-1.347 6.351,-2.929 10.175,-6.881c34.326,-1.556 30.529,13.714 46.597,11.331c-2.997,2.615 -6.053,4.187 -9.226,3.636c8.532,3.512 13.346,7.525 12.731,12.269c7.62,4.309 10.168,9.983 8.641,16.755c8.31,12.546 1.321,34.272 -0.192,23.145l-0.475,12.501c4.223,-0.388 5.862,2.206 6.674,4.829c0.975,3.15 -0.824,14.069 -0.824,14.069l-3.505,5.669c-1.147,10.074 -5.12,12.43 -9.841,6.838c-2.751,19.644 -5.08,19.832 -11.328,27.446c-6.248,7.615 -18.898,15.169 -26.159,18.239c-5.345,2.26 -12.237,2.816 -17.408,0.182c-8.269,-4.214 -25.93,-17.755 -32.212,-25.46Z" style="fill:none;stroke:#fff;stroke-width:2.5px;"/></g><path id="cheveux" d="M51.893,4.038c1.4,-0.971 2.864,-2.193 4.433,-3.814c34.326,-1.556 30.529,13.714 46.597,11.331c-2.997,2.615 -6.053,4.187 -9.226,3.636c8.532,3.512 13.346,7.525 12.731,12.269c7.62,4.309 10.168,9.983 8.641,16.755c8.31,12.546 1.321,34.272 -0.192,23.145l-5.572,34.02c-1.481,-9.252 -2.639,-19.152 -1.53,-33.585c0.501,-6.789 -8.859,-13.241 -6.252,-22.989c-1.737,-0.122 -11.116,1.472 -13.309,-3.383c0.425,-0.277 0.848,-0.561 1.271,-0.842l-1.64,-0.377c0.077,0.446 0.202,0.851 0.369,1.219c-4.089,2.667 -8.395,4.746 -15.785,-1.559c3.43,4.886 0.652,5.273 -8.19,1.266c-1.85,1.224 -3.744,1.704 -5.706,1.014c-3.6,-5.19 -7.301,-8.702 -11.127,-10.152c0.705,-0.917 1.755,-1.668 3.19,-2.091l-7.641,1.351c1.503,-0.07 2.986,0.184 4.451,0.74c-2.506,3.262 -0.639,8.619 3.823,8.717c-5.916,5.179 -12.941,-0.734 -24.064,-6.629c1.868,3.215 4.325,5.947 7.431,8.148c-4.136,1.729 -9.444,0.411 -15.832,-3.715c5.901,7.861 -6.31,13.079 -0.373,23.28c0.22,0.299 0.429,0.633 0.627,0.995c-0.229,-0.337 -0.437,-0.668 -0.627,-0.995c-1.024,-1.391 -2.313,-2.048 -4.067,-1.413c0.029,3.097 2.508,6.033 0.012,8.845c-5.71,6.433 6.638,18.565 -3.491,31.919c-0.155,0.042 -0.241,0.088 -0.254,0.136c0.024,0.035 0.048,0.068 0.073,0.1c-0.058,-0.034 -0.082,-0.068 -0.073,-0.1c-2.208,-3.205 -0.068,-15.166 -7.057,-31.449c-6.51,-12.435 -0.742,-20.29 2.514,-26.109c-1.228,-12 3.271,-17.362 8.905,-21.436l4.307,-2.861c-1.459,0.929 -2.918,1.856 -4.307,2.861l-0.003,0.002l-4.252,-2.82c2.227,0.848 2.372,1.214 9.216,-6.074c7.838,-8.345 9.513,-1.142 21.438,-9.647l10.541,0.291c-2.011,1.396 -3.887,2.272 -5.742,3.067c1.961,-0.745 3.895,-1.645 5.742,-3.067l0,0Zm-45.845,39.684c0.119,1.174 0.294,2.41 0.528,3.715l0.984,-6.916c-0.334,1.002 -0.875,2.063 -1.512,3.201Z" style="fill:none;stroke:#fff;stroke-width:2.5px;"/><g><g><path d="M67.516,137.598c-4.98,2.277 -9.744,2.286 -14.298,0.08" style="fill:none;stroke:#fff;stroke-width:2.5px;"/><path d="M44.672,131.082l0.392,2.718c-0.196,-1.02 -0.37,-1.961 -0.392,-2.718c0.018,-1.369 1.139,-1.925 2.819,-2.069c-1.99,0.202 -2.787,0.958 -2.819,2.069c10.594,3.483 21.188,3.455 31.782,-0.32l-2.401,-1.842c-0,0 1.895,0.177 2.401,1.842c0.515,1.693 -0.48,2.962 -0.48,2.962" style="fill:none;stroke:#fff;stroke-width:2.5px;"/></g><g><path d="M24.653,90.162c2.455,-5.593 3.616,-5.779 7.281,-7.781c0.44,-0.241 22.446,-2.685 23.029,4.633l-8.015,6.313c-10.32,1.343 -18.768,1.131 -22.295,-3.165Z" style="fill:none;stroke:#fff;stroke-width:2.5px;"/><path d="M95.152,90.162c-2.456,-5.593 -3.616,-5.779 -7.281,-7.781c-0.441,-0.241 -22.447,-2.685 -23.03,4.633l8.016,6.313c10.32,1.343 18.767,1.131 22.295,-3.165Z" style="fill:none;stroke:#fff;stroke-width:2.5px;"/></g><g><circle cx="38.494" cy="87.928" r="0.411" style="stroke:#fff;stroke-width:2.5px;"/><circle cx="80.185" cy="87.835" r="2.573" style="stroke:#fff;stroke-width:2.5px;"/><circle cx="38.494" cy="87.835" r="2.573" style="stroke:#fff;stroke-width:2.5px;"/></g><path d="M61.585,98.983c-0.716,6.868 6.033,12.748 3.819,16.011c-2.768,4.08 -13.616,5.455 -11.301,-3.566" style="fill:none;stroke:#fff;stroke-width:2.5px;"/><g><path d="M65.284,73.156c-0.73,1.431 -0.536,2.861 0.422,4.292c14.274,0.884 15.208,-7.451 34.477,1.337c-6.625,-7.242 -17.766,-9.645 -34.899,-5.629Z" style="fill:none;stroke:#fff;stroke-width:2.5px;"/><path d="M55.722,73.156c0.73,1.431 0.537,2.861 -0.422,4.292c-14.274,0.884 -15.208,-7.451 -34.477,1.337c6.625,-7.242 17.767,-9.645 34.899,-5.629Z" style="fill:none;stroke:#fff;stroke-width:2.5px;"/></g></g><g><path d="M55.401,89.157c3.047,-2.517 6.258,-2.956 9.689,-0.573l-0.197,1.578c-2.569,-1.651 -5.341,-2.64 -9.356,0.432l-0.136,-1.437Z" style="fill:#fff;"/><path d="M98.823,89.215l12.507,-10.515c0.807,-0.697 1.904,0.055 3.072,1.161l-0.51,1.153c-0.68,-0.644 -1.36,-1.211 -2.04,-0.715l-12.892,10.463l-0.137,-1.547Z" style="fill:#fff;"/><path d="M21.668,88.63l-11.714,-9.845c-1.013,-0.295 -1.352,0.19 -1.116,1.336l12.641,10.041l0.189,-1.532Z" style="fill:#fff;"/></g><g><path d="M81.908,74.437c9.42,-0 17.067,7.647 17.067,17.067c0,9.42 -7.647,17.067 -17.067,17.067c-9.419,0 -17.067,-7.647 -17.067,-17.067c-0,-9.42 7.648,-17.067 17.067,-17.067Zm0,1.706c8.478,0 15.361,6.883 15.361,15.361c-0,8.478 -6.883,15.36 -15.361,15.36c-8.478,0 -15.36,-6.882 -15.36,-15.36c-0,-8.478 6.882,-15.361 15.36,-15.361Z" style="fill:#fff;"/><path d="M38.494,74.437c9.42,-0 17.067,7.647 17.067,17.067c0,9.42 -7.647,17.067 -17.067,17.067c-9.42,0 -17.067,-7.647 -17.067,-17.067c-0,-9.42 7.647,-17.067 17.067,-17.067Zm0,1.706c8.478,0 15.361,6.883 15.361,15.361c-0,8.478 -6.883,15.36 -15.361,15.36c-8.478,0 -15.36,-6.882 -15.36,-15.36c-0,-8.478 6.882,-15.361 15.36,-15.361Z" style="fill:#fff;"/></g><g><path d="M105.297,51.993c1.946,5.612 7.671,8.113 8.444,11.626" style="fill:none;stroke:#fff;stroke-width:1.25px;"/><path d="M108.337,51.374c0.173,2.79 1.44,4.565 3.715,5.403" style="fill:none;stroke:#fff;stroke-width:1.25px;"/><path d="M105.297,32.37c5.206,1.703 6.087,9.951 6.586,14.219c0.413,3.533 4.231,5.821 3.884,9.344" style="fill:none;stroke:#fff;stroke-width:1.25px;"/><path d="M90.324,32.027c4.321,14.426 17.65,2.498 18.97,13.887" style="fill:none;stroke:#fff;stroke-width:1.25px;"/><path d="M79.348,27.316c3.405,2.058 5.114,5.412 5.967,9.423" style="fill:none;stroke:#fff;stroke-width:1.25px;"/><path d="M100.513,34.47c-4.49,2.373 -11.477,-12.644 -17.788,-12.58" style="fill:none;stroke:#fff;stroke-width:1.25px;"/><path d="M70.261,16.835c18.271,-5.404 10.734,7.411 26.874,6.913" style="fill:none;stroke:#fff;stroke-width:1.25px;"/><path d="M67.021,32.855c4.171,-2.474 7.761,5.332 11.483,5.403" style="fill:none;stroke:#fff;stroke-width:1.25px;"/><path d="M55.087,31.464c3.732,5.486 8.01,7.144 12.792,5.275" style="fill:none;stroke:#fff;stroke-width:1.25px;"/><path d="M67.879,21.89l4.765,5.426" style="fill:none;stroke:#fff;stroke-width:1.25px;"/><path d="M79.348,8.809c-6.148,-2.026 -13.443,8.298 -19.542,6.378" style="fill:none;stroke:#fff;stroke-width:1.25px;"/><path d="M48.503,13.692c11.469,1.619 8.855,-4.463 17.292,-5.636c-1.745,-1.217 -3.943,-1.755 -6.89,-1.17" style="fill:none;stroke:#fff;stroke-width:1.25px;"/><path d="M53.817,18.504c7.757,-0.59 10.833,4.274 11.978,10.537c-5.095,-3.994 -8.834,-4.057 -11.528,-1.086" style="fill:none;stroke:#fff;stroke-width:1.25px;"/><path d="M49.791,20.643c-6.355,5.008 -7.034,-7.064 -18.246,-1.396" style="fill:none;stroke:#fff;stroke-width:1.25px;"/><path d="M26.42,14.609c6.434,-6.115 13.953,1.44 15.986,0.495" style="fill:none;stroke:#fff;stroke-width:1.25px;"/><path d="M24.79,19.699c1.379,3.5 5.297,5.085 7.937,4.166c2.932,-1.02 5.835,0.172 7.824,1.576c1.926,1.359 3.987,2.289 6.417,1.689" style="fill:none;stroke:#fff;stroke-width:1.25px;"/><path d="M24.79,25.441c2.632,3.341 5.025,5.611 6.755,4.897" style="fill:none;stroke:#fff;stroke-width:1.25px;"/><path d="M17.811,31.464c1.108,4.423 3.094,6.29 5.854,5.91" style="fill:none;stroke:#fff;stroke-width:1.25px;"/><path d="M15.579,41.637c0.221,7.524 -10.541,16.36 -3.558,24.947" style="fill:none;stroke:#fff;stroke-width:1.25px;"/><path d="M7.733,52.801c-4.169,8.451 1.919,13.149 0.792,21.636" style="fill:none;stroke:#fff;stroke-width:1.25px;"/></g></g></svg>