<?xml version="1.0" encoding="UTF-8" standalone="no"?><!DOCTYPE svg PUBLIC "-//W3C//DTD SVG 1.1//EN" "http://www.w3.org/Graphics/SVG/1.1/DTD/svg11.dtd"><svg width="100%" height="100%" viewBox="0 0 839 912" version="1.1" xmlns="http://www.w3.org/2000/svg" xmlns:xlink="http://www.w3.org/1999/xlink" xml:space="preserve" xmlns:serif="http://www.serif.com/" style="fill-rule:evenodd;clip-rule:evenodd;stroke-linecap:round;stroke-linejoin:round;stroke-miterlimit:1.5;"><g><path d="M300.572,705.206c-36.816,-12.662 -73.628,10.383 -110.439,60.25l-115.994,-113.245c100.061,-80.972 72.278,-163.039 -61.989,-150.244l1.611,-160.539c110.072,16.283 168.761,-68.567 62.361,-153.978l110.006,-109.706c71.3,90.017 163.622,64.778 151.661,-64.05l161.305,-0.572c-18.966,113.161 76.6,164.384 150.728,63.011l110.967,112.111c-107.372,78.173 -44.917,175.95 64.561,153.184l-0.089,159.289c-120.305,-23.634 -167.672,78.15 -61.878,151.494l-113.561,108.861c-37.666,-40.789 -75.333,-65.366 -112.994,-55.139" style="fill:none;stroke:#fffa00;stroke-width:20.83px;"/><path d="M370.639,836.617c-2.472,75.627 94.289,80.572 94.417,-0" style="fill:none;stroke:#fffa00;stroke-width:20.83px;"/><path d="M538.333,625.733c0,0 -0.816,43.528 -1.711,91.034c-1.255,66.555 -55.561,119.85 -122.128,119.85l-0.011,-0c-30.289,-0 -59.333,-12.056 -80.711,-33.506c-21.383,-21.45 -33.35,-50.533 -33.255,-80.817c0.155,-49.6 0.3,-96.561 0.3,-96.561c-240.639,-182.311 -68.178,-443.172 117.861,-441.939c269.128,1.784 295.35,343.212 119.655,441.939Z" style="fill:none;stroke:#fffa00;stroke-width:20.83px;"/><path d="M300.739,651.267l237.1,0.944l-155.672,-0.622c-0,-0 -0.256,-184.067 -0.373,-268.389c-0.033,-22.85 -18.494,-41.4 -41.35,-41.533c-0.688,-0 -1.383,-0.006 -2.072,-0.011c-10.583,-0.062 -20.761,4.105 -28.266,11.572c-7.506,7.466 -11.723,17.616 -11.723,28.205l0,0.006c0.006,10.522 4.195,20.611 11.645,28.039c7.45,7.433 17.544,11.6 28.066,11.578c44.762,-0.084 117.095,-0.223 161.578,-0.306c10.334,-0.022 20.234,-4.156 27.511,-11.489c7.284,-7.339 11.339,-17.267 11.278,-27.605l0,-0.006c-0.122,-21.25 -17.339,-38.433 -38.589,-38.517c-0.672,0 -1.344,-0.005 -2.016,-0.005c-10.995,-0.045 -21.545,4.333 -29.273,12.15c-7.733,7.811 -11.994,18.405 -11.833,29.4c1.239,84.35 3.922,267.228 3.922,267.228" style="fill:none;stroke:#fffa00;stroke-width:20.83px;"/></g></svg>