<?xml version="1.0" encoding="UTF-8" standalone="no"?><!DOCTYPE svg PUBLIC "-//W3C//DTD SVG 1.1//EN" "http://www.w3.org/Graphics/SVG/1.1/DTD/svg11.dtd"><svg width="100%" height="100%" viewBox="0 0 151 164" version="1.1" xmlns="http://www.w3.org/2000/svg" xmlns:xlink="http://www.w3.org/1999/xlink" xml:space="preserve" xmlns:serif="http://www.serif.com/" style="fill-rule:evenodd;clip-rule:evenodd;stroke-linecap:round;stroke-linejoin:round;stroke-miterlimit:1.5;"><g><path d="M54.103,126.937c-6.627,-2.279 -13.253,1.869 -19.879,10.845l-20.879,-20.384c18.011,-14.575 13.01,-29.347 -11.158,-27.044l0.29,-28.897c19.813,2.931 30.377,-12.342 11.225,-27.716l19.801,-19.747c12.834,16.203 29.452,11.66 27.299,-11.529l29.035,-0.103c-3.414,20.369 13.788,29.589 27.131,11.342l19.974,20.18c-19.327,14.071 -8.085,31.671 11.621,27.573l-0.016,28.672c-21.655,-4.254 -30.181,14.067 -11.138,27.269l-20.441,19.595c-6.78,-7.342 -13.56,-11.766 -20.339,-9.925" style="fill:none;stroke:#fff;stroke-width:3.75px;"/><path d="M66.715,150.591c-0.445,13.613 16.972,14.503 16.995,0" style="fill:none;stroke:#fff;stroke-width:3.75px;"/><path id="_-ampouleJaune" serif:id="#ampouleJaune" d="M54.147,112.632c-9.603,-5.261 -15.571,-13.066 -18.526,-22.981c-1.854,-7.517 -3.946,-15.033 -1.771,-22.55c1.597,-6.986 3.878,-13.8 10.354,-19.566c3.515,-4.003 7.055,-7.991 13.338,-10.149c4.468,-2.116 9.397,-4.019 17.833,-4.303c3.33,-0.253 7.66,0.195 14.03,2.07c3.803,1.002 7.257,2.179 9.111,4.155l7.084,5.771l3.415,4.122l3.807,6.56l3.162,9.673l0.968,10.994l-1.28,9.957l-3.199,9.172l-3.509,6.046l-3.658,4.475l-5.338,4.617l-3.068,1.937l-0.089,4.766l-42.678,-0.17l0.014,-4.596Z" style="fill:none;"/><path d="M96.9,112.632c0,0 -0.147,7.835 -0.308,16.386c-0.226,11.98 -10.001,21.573 -21.983,21.573l-0.002,0c-5.452,0 -10.68,-2.17 -14.528,-6.031c-3.849,-3.861 -6.003,-9.096 -5.986,-14.547c0.028,-8.928 0.054,-17.381 0.054,-17.381c-43.315,-32.816 -12.272,-79.771 21.215,-79.549c48.443,0.321 53.163,61.778 21.538,79.549Z" style="fill:none;stroke:#fff;stroke-width:3.75px;"/><path d="M54.133,117.228l42.678,0.17l-28.021,-0.112c0,0 -0.046,-33.132 -0.067,-48.31c-0.006,-4.113 -3.329,-7.452 -7.443,-7.476c-0.124,-0 -0.249,-0.001 -0.373,-0.002c-1.905,-0.011 -3.737,0.739 -5.088,2.083c-1.351,1.344 -2.11,3.171 -2.11,5.077c0,0 0,0.001 0,0.001c0.001,1.894 0.755,3.71 2.096,5.047c1.341,1.338 3.158,2.088 5.052,2.084c8.057,-0.015 21.077,-0.04 29.084,-0.055c1.86,-0.004 3.642,-0.748 4.952,-2.068c1.311,-1.321 2.041,-3.108 2.03,-4.969c0,0 0,-0 0,-0.001c-0.022,-3.825 -3.121,-6.918 -6.946,-6.933c-0.121,-0 -0.242,-0.001 -0.363,-0.001c-1.979,-0.008 -3.878,0.78 -5.269,2.187c-1.392,1.406 -2.159,3.313 -2.13,5.292c0.223,15.183 0.706,48.101 0.706,48.101" style="fill:none;stroke:#fff;stroke-width:3.75px;"/></g></svg>