<?xml version="1.0" encoding="UTF-8" standalone="no"?><!DOCTYPE svg PUBLIC "-//W3C//DTD SVG 1.1//EN" "http://www.w3.org/Graphics/SVG/1.1/DTD/svg11.dtd"><svg width="100%" height="100%" viewBox="0 0 42 42" version="1.1" xmlns="http://www.w3.org/2000/svg" xmlns:xlink="http://www.w3.org/1999/xlink" xml:space="preserve" xmlns:serif="http://www.serif.com/" style="fill-rule:evenodd;clip-rule:evenodd;stroke-linejoin:round;stroke-miterlimit:2;"><path d="M0.493,41.507c0.246,0.246 0.568,0.369 0.891,0.369c0.322,0 0.644,-0.123 0.89,-0.369l18.726,-18.725l18.726,18.725c0.246,0.246 0.568,0.369 0.89,0.369c0.323,0 0.645,-0.123 0.891,-0.369c0.492,-0.492 0.492,-1.289 0,-1.781l-18.725,-18.726l18.725,-18.726c0.492,-0.492 0.492,-1.289 0,-1.781c-0.492,-0.492 -1.289,-0.492 -1.781,-0l-18.726,18.725l-18.726,-18.725c-0.492,-0.492 -1.289,-0.492 -1.781,-0c-0.492,0.492 -0.492,1.29 -0,1.782l18.725,18.725l-18.725,18.726c-0.492,0.492 -0.492,1.289 -0,1.781Z" style="fill:#fff;fill-rule:nonzero;"/></svg>