<?xml version="1.0" encoding="UTF-8" standalone="no"?><!DOCTYPE svg PUBLIC "-//W3C//DTD SVG 1.1//EN" "http://www.w3.org/Graphics/SVG/1.1/DTD/svg11.dtd"><svg width="100%" height="100%" viewBox="0 0 2778 2778" version="1.1" xmlns="http://www.w3.org/2000/svg" xmlns:xlink="http://www.w3.org/1999/xlink" xml:space="preserve" xmlns:serif="http://www.serif.com/" style="fill-rule:evenodd;clip-rule:evenodd;stroke-linejoin:round;stroke-miterlimit:2;"><path d="M2000,2500l-1222.22,0c-276.167,0 -500,-223.833 -500,-500l-0,-1222.22c-0,-276.167 223.833,-500 500,-500l1222.22,-0c276.167,-0 500,223.833 500,500l0,1222.22c0,276.167 -223.833,500 -500,500Zm-1385,-1528.33c-2.778,8.889 -3.889,18.333 -3.889,28.333l0,777.778c0,10 1.111,19.444 3.889,28.333l417.778,-417.222l-417.778,-417.222Zm1001.11,545.555c-62.778,62.778 -145,93.889 -227.778,93.889c-82.222,0 -165,-31.111 -227.777,-93.889l-49.445,-50l-417.222,417.778c8.889,2.778 18.333,3.889 28.333,3.889l1333.33,-0c10,-0 19.444,-1.111 28.333,-3.889l-417.778,-417.778l-50,50Zm-78.333,-78.889l546.111,-545.555c-8.889,-2.778 -18.333,-3.889 -28.333,-3.889l-1333.33,-0c-10,-0 -19.444,1.111 -28.333,3.889l545.555,545.555c82.223,82.223 216.112,82.223 298.334,0Zm625,-466.666l-418.334,417.222l418.334,417.222c2.778,-8.889 3.889,-18.333 3.889,-28.333l-0,-777.778c-0,-10 -1.111,-19.444 -3.889,-28.333Z" style="fill:#fff;fill-rule:nonzero;"/></svg>