<?xml version="1.0" encoding="UTF-8" standalone="no"?><!DOCTYPE svg PUBLIC "-//W3C//DTD SVG 1.1//EN" "http://www.w3.org/Graphics/SVG/1.1/DTD/svg11.dtd"><svg width="100%" height="100%" viewBox="0 0 168 164" version="1.1" xmlns="http://www.w3.org/2000/svg" xmlns:xlink="http://www.w3.org/1999/xlink" xml:space="preserve" xmlns:serif="http://www.serif.com/" style="fill-rule:evenodd;clip-rule:evenodd;stroke-linecap:round;stroke-linejoin:round;stroke-miterlimit:1.5;"><g><g><path d="M79.935,58.59l-23.577,-1.502l-19.483,-7.337" style="fill:none;stroke:#fff;stroke-width:3.75px;"/><path d="M124.883,120.004c-3.332,1.904 -4.207,6.653 -1.953,10.599c2.254,3.946 6.79,5.604 10.122,3.7c3.332,-1.903 4.207,-6.653 1.953,-10.598c-2.255,-3.946 -6.79,-5.605 -10.122,-3.701Z" style="fill:none;stroke:#fff;stroke-width:3.75px;"/><path d="M87.253,50.667c-3.841,-0.167 -7.12,3.383 -7.318,7.923c-0.198,4.54 2.76,8.362 6.601,8.53c3.841,0.167 7.12,-3.383 7.317,-7.923c0.198,-4.541 -2.759,-8.363 -6.6,-8.53Z" style="fill:none;stroke:#fff;stroke-width:3.75px;"/><path d="M30.989,39.327c-3.592,-0.156 -6.668,3.403 -6.866,7.943c-0.198,4.54 2.557,8.353 6.149,8.51c3.591,0.156 6.668,-3.403 6.866,-7.943c0.197,-4.54 -2.558,-8.353 -6.149,-8.51Z" style="fill:none;stroke:#fff;stroke-width:3.75px;"/><path d="M124.064,120.567l-13.553,-17.933l-19.797,-36.923" style="fill:none;stroke:#fff;stroke-width:3.75px;"/></g><g><path d="M56.396,2.381l-0.11,158.738" style="fill:none;stroke:#fff;stroke-width:3.75px;"/><path d="M56.396,2.381l54.115,6.778c-0,0 27.673,-3.391 43.874,-5.376c2.89,-0.354 5.792,0.555 7.964,2.495c2.172,1.939 3.402,4.721 3.376,7.632c-0.263,29.27 -0.955,106.18 -1.216,135.17c-0.026,2.874 -1.272,5.602 -3.427,7.503c-2.156,1.901 -5.018,2.796 -7.872,2.463c-15.646,-1.828 -42.152,-4.924 -42.152,-4.924l-54.772,6.997c0,-0 -29.855,-3.679 -45.215,-5.572c-5.08,-0.626 -8.894,-4.945 -8.886,-10.064c0.039,-26.017 0.153,-101.31 0.192,-127.221c0.007,-5.083 3.783,-9.373 8.824,-10.026c15.307,-1.983 45.195,-5.855 45.195,-5.855Z" style="fill:none;stroke:#fff;stroke-width:3.75px;"/><path d="M110.511,9.159l0.547,144.963" style="fill:none;stroke:#fff;stroke-width:3.75px;"/></g></g></svg>